<svg width="210" height="210" viewBox="0 0 210 210" fill="none" xmlns="http://www.w3.org/2000/svg">
<g filter="url(#filter0_bd_3_3)">
<path d="M5 1H11.0606V7.06061H5V1Z" fill="#FEFFFF"/>
<path d="M11.0606 1H17.1212V7.06061H11.0606V1Z" fill="#FEFFFF"/>
<path d="M17.1212 1H23.1818V7.06061H17.1212V1Z" fill="#FEFFFF"/>
<path d="M23.1818 1H29.2424V7.06061H23.1818V1Z" fill="#FEFFFF"/>
<path d="M29.2424 1H35.303V7.06061H29.2424V1Z" fill="#FEFFFF"/>
<path d="M35.303 1H41.3636V7.06061H35.303V1Z" fill="#FEFFFF"/>
<path d="M41.3636 1H47.4242V7.06061H41.3636V1Z" fill="#FEFFFF"/>
<path d="M71.6667 1H77.7273V7.06061H71.6667V1Z" fill="#FEFFFF"/>
<path d="M89.8485 1H95.9091V7.06061H89.8485V1Z" fill="#FEFFFF"/>
<path d="M95.9091 1H101.97V7.06061H95.9091V1Z" fill="#FEFFFF"/>
<path d="M108.03 1H114.091V7.06061H108.03V1Z" fill="#FEFFFF"/>
<path d="M120.152 1H126.212V7.06061H120.152V1Z" fill="#FEFFFF"/>
<path d="M126.212 1H132.273V7.06061H126.212V1Z" fill="#FEFFFF"/>
<path d="M138.333 1H144.394V7.06061H138.333V1Z" fill="#FEFFFF"/>
<path d="M150.455 1H156.515V7.06061H150.455V1Z" fill="#FEFFFF"/>
<path d="M162.576 1H168.636V7.06061H162.576V1Z" fill="#FEFFFF"/>
<path d="M168.636 1H174.697V7.06061H168.636V1Z" fill="#FEFFFF"/>
<path d="M174.697 1H180.758V7.06061H174.697V1Z" fill="#FEFFFF"/>
<path d="M180.758 1H186.818V7.06061H180.758V1Z" fill="#FEFFFF"/>
<path d="M186.818 1H192.879V7.06061H186.818V1Z" fill="#FEFFFF"/>
<path d="M192.879 1H198.939V7.06061H192.879V1Z" fill="#FEFFFF"/>
<path d="M198.939 1H205V7.06061H198.939V1Z" fill="#FEFFFF"/>
<path d="M5 7.06061H11.0606V13.1212H5V7.06061Z" fill="#FEFFFF"/>
<path d="M41.3636 7.06061H47.4242V13.1212H41.3636V7.06061Z" fill="#FEFFFF"/>
<path d="M53.4848 7.06061H59.5455V13.1212H53.4848V7.06061Z" fill="#FEFFFF"/>
<path d="M65.6061 7.06061H71.6667V13.1212H65.6061V7.06061Z" fill="#FEFFFF"/>
<path d="M83.7879 7.06061H89.8485V13.1212H83.7879V7.06061Z" fill="#FEFFFF"/>
<path d="M89.8485 7.06061H95.9091V13.1212H89.8485V7.06061Z" fill="#FEFFFF"/>
<path d="M95.9091 7.06061H101.97V13.1212H95.9091V7.06061Z" fill="#FEFFFF"/>
<path d="M101.97 7.06061H108.03V13.1212H101.97V7.06061Z" fill="#FEFFFF"/>
<path d="M108.03 7.06061H114.091V13.1212H108.03V7.06061Z" fill="#FEFFFF"/>
<path d="M114.091 7.06061H120.152V13.1212H114.091V7.06061Z" fill="#FEFFFF"/>
<path d="M132.273 7.06061H138.333V13.1212H132.273V7.06061Z" fill="#FEFFFF"/>
<path d="M162.576 7.06061H168.636V13.1212H162.576V7.06061Z" fill="#FEFFFF"/>
<path d="M198.939 7.06061H205V13.1212H198.939V7.06061Z" fill="#FEFFFF"/>
<path d="M5 13.1212H11.0606V19.1818H5V13.1212Z" fill="#FEFFFF"/>
<path d="M17.1212 13.1212H23.1818V19.1818H17.1212V13.1212Z" fill="#FEFFFF"/>
<path d="M23.1818 13.1212H29.2424V19.1818H23.1818V13.1212Z" fill="#FEFFFF"/>
<path d="M29.2424 13.1212H35.303V19.1818H29.2424V13.1212Z" fill="#FEFFFF"/>
<path d="M41.3636 13.1212H47.4242V19.1818H41.3636V13.1212Z" fill="#FEFFFF"/>
<path d="M53.4848 13.1212H59.5455V19.1818H53.4848V13.1212Z" fill="#FEFFFF"/>
<path d="M59.5455 13.1212H65.6061V19.1818H59.5455V13.1212Z" fill="#FEFFFF"/>
<path d="M65.6061 13.1212H71.6667V19.1818H65.6061V13.1212Z" fill="#FEFFFF"/>
<path d="M71.6667 13.1212H77.7273V19.1818H71.6667V13.1212Z" fill="#FEFFFF"/>
<path d="M77.7273 13.1212H83.7879V19.1818H77.7273V13.1212Z" fill="#FEFFFF"/>
<path d="M89.8485 13.1212H95.9091V19.1818H89.8485V13.1212Z" fill="#FEFFFF"/>
<path d="M95.9091 13.1212H101.97V19.1818H95.9091V13.1212Z" fill="#FEFFFF"/>
<path d="M108.03 13.1212H114.091V19.1818H108.03V13.1212Z" fill="#FEFFFF"/>
<path d="M120.152 13.1212H126.212V19.1818H120.152V13.1212Z" fill="#FEFFFF"/>
<path d="M126.212 13.1212H132.273V19.1818H126.212V13.1212Z" fill="#FEFFFF"/>
<path d="M132.273 13.1212H138.333V19.1818H132.273V13.1212Z" fill="#FEFFFF"/>
<path d="M150.455 13.1212H156.515V19.1818H150.455V13.1212Z" fill="#FEFFFF"/>
<path d="M162.576 13.1212H168.636V19.1818H162.576V13.1212Z" fill="#FEFFFF"/>
<path d="M174.697 13.1212H180.758V19.1818H174.697V13.1212Z" fill="#FEFFFF"/>
<path d="M180.758 13.1212H186.818V19.1818H180.758V13.1212Z" fill="#FEFFFF"/>
<path d="M186.818 13.1212H192.879V19.1818H186.818V13.1212Z" fill="#FEFFFF"/>
<path d="M198.939 13.1212H205V19.1818H198.939V13.1212Z" fill="#FEFFFF"/>
<path d="M5 19.1818H11.0606V25.2424H5V19.1818Z" fill="#FEFFFF"/>
<path d="M17.1212 19.1818H23.1818V25.2424H17.1212V19.1818Z" fill="#FEFFFF"/>
<path d="M23.1818 19.1818H29.2424V25.2424H23.1818V19.1818Z" fill="#FEFFFF"/>
<path d="M29.2424 19.1818H35.303V25.2424H29.2424V19.1818Z" fill="#FEFFFF"/>
<path d="M41.3636 19.1818H47.4242V25.2424H41.3636V19.1818Z" fill="#FEFFFF"/>
<path d="M53.4848 19.1818H59.5455V25.2424H53.4848V19.1818Z" fill="#FEFFFF"/>
<path d="M59.5455 19.1818H65.6061V25.2424H59.5455V19.1818Z" fill="#FEFFFF"/>
<path d="M83.7879 19.1818H89.8485V25.2424H83.7879V19.1818Z" fill="#FEFFFF"/>
<path d="M89.8485 19.1818H95.9091V25.2424H89.8485V19.1818Z" fill="#FEFFFF"/>
<path d="M108.03 19.1818H114.091V25.2424H108.03V19.1818Z" fill="#FEFFFF"/>
<path d="M114.091 19.1818H120.152V25.2424H114.091V19.1818Z" fill="#FEFFFF"/>
<path d="M120.152 19.1818H126.212V25.2424H120.152V19.1818Z" fill="#FEFFFF"/>
<path d="M132.273 19.1818H138.333V25.2424H132.273V19.1818Z" fill="#FEFFFF"/>
<path d="M138.333 19.1818H144.394V25.2424H138.333V19.1818Z" fill="#FEFFFF"/>
<path d="M144.394 19.1818H150.455V25.2424H144.394V19.1818Z" fill="#FEFFFF"/>
<path d="M162.576 19.1818H168.636V25.2424H162.576V19.1818Z" fill="#FEFFFF"/>
<path d="M174.697 19.1818H180.758V25.2424H174.697V19.1818Z" fill="#FEFFFF"/>
<path d="M180.758 19.1818H186.818V25.2424H180.758V19.1818Z" fill="#FEFFFF"/>
<path d="M186.818 19.1818H192.879V25.2424H186.818V19.1818Z" fill="#FEFFFF"/>
<path d="M198.939 19.1818H205V25.2424H198.939V19.1818Z" fill="#FEFFFF"/>
<path d="M5 25.2424H11.0606V31.303H5V25.2424Z" fill="#FEFFFF"/>
<path d="M17.1212 25.2424H23.1818V31.303H17.1212V25.2424Z" fill="#FEFFFF"/>
<path d="M23.1818 25.2424H29.2424V31.303H23.1818V25.2424Z" fill="#FEFFFF"/>
<path d="M29.2424 25.2424H35.303V31.303H29.2424V25.2424Z" fill="#FEFFFF"/>
<path d="M41.3636 25.2424H47.4242V31.303H41.3636V25.2424Z" fill="#FEFFFF"/>
<path d="M53.4848 25.2424H59.5455V31.303H53.4848V25.2424Z" fill="#FEFFFF"/>
<path d="M59.5455 25.2424H65.6061V31.303H59.5455V25.2424Z" fill="#FEFFFF"/>
<path d="M65.6061 25.2424H71.6667V31.303H65.6061V25.2424Z" fill="#FEFFFF"/>
<path d="M71.6667 25.2424H77.7273V31.303H71.6667V25.2424Z" fill="#FEFFFF"/>
<path d="M89.8485 25.2424H95.9091V31.303H89.8485V25.2424Z" fill="#FEFFFF"/>
<path d="M108.03 25.2424H114.091V31.303H108.03V25.2424Z" fill="#FEFFFF"/>
<path d="M114.091 25.2424H120.152V31.303H114.091V25.2424Z" fill="#FEFFFF"/>
<path d="M120.152 25.2424H126.212V31.303H120.152V25.2424Z" fill="#FEFFFF"/>
<path d="M126.212 25.2424H132.273V31.303H126.212V25.2424Z" fill="#FEFFFF"/>
<path d="M132.273 25.2424H138.333V31.303H132.273V25.2424Z" fill="#FEFFFF"/>
<path d="M138.333 25.2424H144.394V31.303H138.333V25.2424Z" fill="#FEFFFF"/>
<path d="M144.394 25.2424H150.455V31.303H144.394V25.2424Z" fill="#FEFFFF"/>
<path d="M162.576 25.2424H168.636V31.303H162.576V25.2424Z" fill="#FEFFFF"/>
<path d="M174.697 25.2424H180.758V31.303H174.697V25.2424Z" fill="#FEFFFF"/>
<path d="M180.758 25.2424H186.818V31.303H180.758V25.2424Z" fill="#FEFFFF"/>
<path d="M186.818 25.2424H192.879V31.303H186.818V25.2424Z" fill="#FEFFFF"/>
<path d="M198.939 25.2424H205V31.303H198.939V25.2424Z" fill="#FEFFFF"/>
<path d="M5 31.303H11.0606V37.3636H5V31.303Z" fill="#FEFFFF"/>
<path d="M41.3636 31.303H47.4242V37.3636H41.3636V31.303Z" fill="#FEFFFF"/>
<path d="M53.4848 31.303H59.5455V37.3636H53.4848V31.303Z" fill="#FEFFFF"/>
<path d="M59.5455 31.303H65.6061V37.3636H59.5455V31.303Z" fill="#FEFFFF"/>
<path d="M71.6667 31.303H77.7273V37.3636H71.6667V31.303Z" fill="#FEFFFF"/>
<path d="M77.7273 31.303H83.7879V37.3636H77.7273V31.303Z" fill="#FEFFFF"/>
<path d="M83.7879 31.303H89.8485V37.3636H83.7879V31.303Z" fill="#FEFFFF"/>
<path d="M108.03 31.303H114.091V37.3636H108.03V31.303Z" fill="#FEFFFF"/>
<path d="M132.273 31.303H138.333V37.3636H132.273V31.303Z" fill="#FEFFFF"/>
<path d="M144.394 31.303H150.455V37.3636H144.394V31.303Z" fill="#FEFFFF"/>
<path d="M162.576 31.303H168.636V37.3636H162.576V31.303Z" fill="#FEFFFF"/>
<path d="M198.939 31.303H205V37.3636H198.939V31.303Z" fill="#FEFFFF"/>
<path d="M5 37.3636H11.0606V43.4242H5V37.3636Z" fill="#FEFFFF"/>
<path d="M11.0606 37.3636H17.1212V43.4242H11.0606V37.3636Z" fill="#FEFFFF"/>
<path d="M17.1212 37.3636H23.1818V43.4242H17.1212V37.3636Z" fill="#FEFFFF"/>
<path d="M23.1818 37.3636H29.2424V43.4242H23.1818V37.3636Z" fill="#FEFFFF"/>
<path d="M29.2424 37.3636H35.303V43.4242H29.2424V37.3636Z" fill="#FEFFFF"/>
<path d="M35.303 37.3636H41.3636V43.4242H35.303V37.3636Z" fill="#FEFFFF"/>
<path d="M41.3636 37.3636H47.4242V43.4242H41.3636V37.3636Z" fill="#FEFFFF"/>
<path d="M53.4848 37.3636H59.5455V43.4242H53.4848V37.3636Z" fill="#FEFFFF"/>
<path d="M65.6061 37.3636H71.6667V43.4242H65.6061V37.3636Z" fill="#FEFFFF"/>
<path d="M77.7273 37.3636H83.7879V43.4242H77.7273V37.3636Z" fill="#FEFFFF"/>
<path d="M89.8485 37.3636H95.9091V43.4242H89.8485V37.3636Z" fill="#FEFFFF"/>
<path d="M101.97 37.3636H108.03V43.4242H101.97V37.3636Z" fill="#FEFFFF"/>
<path d="M114.091 37.3636H120.152V43.4242H114.091V37.3636Z" fill="#FEFFFF"/>
<path d="M126.212 37.3636H132.273V43.4242H126.212V37.3636Z" fill="#FEFFFF"/>
<path d="M138.333 37.3636H144.394V43.4242H138.333V37.3636Z" fill="#FEFFFF"/>
<path d="M150.455 37.3636H156.515V43.4242H150.455V37.3636Z" fill="#FEFFFF"/>
<path d="M162.576 37.3636H168.636V43.4242H162.576V37.3636Z" fill="#FEFFFF"/>
<path d="M168.636 37.3636H174.697V43.4242H168.636V37.3636Z" fill="#FEFFFF"/>
<path d="M174.697 37.3636H180.758V43.4242H174.697V37.3636Z" fill="#FEFFFF"/>
<path d="M180.758 37.3636H186.818V43.4242H180.758V37.3636Z" fill="#FEFFFF"/>
<path d="M186.818 37.3636H192.879V43.4242H186.818V37.3636Z" fill="#FEFFFF"/>
<path d="M192.879 37.3636H198.939V43.4242H192.879V37.3636Z" fill="#FEFFFF"/>
<path d="M198.939 37.3636H205V43.4242H198.939V37.3636Z" fill="#FEFFFF"/>
<path d="M77.7273 43.4242H83.7879V49.4848H77.7273V43.4242Z" fill="#FEFFFF"/>
<path d="M83.7879 43.4242H89.8485V49.4848H83.7879V43.4242Z" fill="#FEFFFF"/>
<path d="M89.8485 43.4242H95.9091V49.4848H89.8485V43.4242Z" fill="#FEFFFF"/>
<path d="M108.03 43.4242H114.091V49.4848H108.03V43.4242Z" fill="#FEFFFF"/>
<path d="M120.152 43.4242H126.212V49.4848H120.152V43.4242Z" fill="#FEFFFF"/>
<path d="M126.212 43.4242H132.273V49.4848H126.212V43.4242Z" fill="#FEFFFF"/>
<path d="M144.394 43.4242H150.455V49.4848H144.394V43.4242Z" fill="#FEFFFF"/>
<path d="M150.455 43.4242H156.515V49.4848H150.455V43.4242Z" fill="#FEFFFF"/>
<path d="M17.1212 49.4848H23.1818V55.5455H17.1212V49.4848Z" fill="#FEFFFF"/>
<path d="M35.303 49.4848H41.3636V55.5455H35.303V49.4848Z" fill="#FEFFFF"/>
<path d="M41.3636 49.4848H47.4242V55.5455H41.3636V49.4848Z" fill="#FEFFFF"/>
<path d="M47.4242 49.4848H53.4848V55.5455H47.4242V49.4848Z" fill="#FEFFFF"/>
<path d="M53.4848 49.4848H59.5455V55.5455H53.4848V49.4848Z" fill="#FEFFFF"/>
<path d="M59.5455 49.4848H65.6061V55.5455H59.5455V49.4848Z" fill="#FEFFFF"/>
<path d="M65.6061 49.4848H71.6667V55.5455H65.6061V49.4848Z" fill="#FEFFFF"/>
<path d="M77.7273 49.4848H83.7879V55.5455H77.7273V49.4848Z" fill="#FEFFFF"/>
<path d="M83.7879 49.4848H89.8485V55.5455H83.7879V49.4848Z" fill="#FEFFFF"/>
<path d="M89.8485 49.4848H95.9091V55.5455H89.8485V49.4848Z" fill="#FEFFFF"/>
<path d="M101.97 49.4848H108.03V55.5455H101.97V49.4848Z" fill="#FEFFFF"/>
<path d="M120.152 49.4848H126.212V55.5455H120.152V49.4848Z" fill="#FEFFFF"/>
<path d="M156.515 49.4848H162.576V55.5455H156.515V49.4848Z" fill="#FEFFFF"/>
<path d="M168.636 49.4848H174.697V55.5455H168.636V49.4848Z" fill="#FEFFFF"/>
<path d="M174.697 49.4848H180.758V55.5455H174.697V49.4848Z" fill="#FEFFFF"/>
<path d="M180.758 49.4848H186.818V55.5455H180.758V49.4848Z" fill="#FEFFFF"/>
<path d="M186.818 49.4848H192.879V55.5455H186.818V49.4848Z" fill="#FEFFFF"/>
<path d="M192.879 49.4848H198.939V55.5455H192.879V49.4848Z" fill="#FEFFFF"/>
<path d="M29.2424 55.5455H35.303V61.6061H29.2424V55.5455Z" fill="#FEFFFF"/>
<path d="M35.303 55.5455H41.3636V61.6061H35.303V55.5455Z" fill="#FEFFFF"/>
<path d="M59.5455 55.5455H65.6061V61.6061H59.5455V55.5455Z" fill="#FEFFFF"/>
<path d="M71.6667 55.5455H77.7273V61.6061H71.6667V55.5455Z" fill="#FEFFFF"/>
<path d="M89.8485 55.5455H95.9091V61.6061H89.8485V55.5455Z" fill="#FEFFFF"/>
<path d="M95.9091 55.5455H101.97V61.6061H95.9091V55.5455Z" fill="#FEFFFF"/>
<path d="M101.97 55.5455H108.03V61.6061H101.97V55.5455Z" fill="#FEFFFF"/>
<path d="M108.03 55.5455H114.091V61.6061H108.03V55.5455Z" fill="#FEFFFF"/>
<path d="M126.212 55.5455H132.273V61.6061H126.212V55.5455Z" fill="#FEFFFF"/>
<path d="M144.394 55.5455H150.455V61.6061H144.394V55.5455Z" fill="#FEFFFF"/>
<path d="M150.455 55.5455H156.515V61.6061H150.455V55.5455Z" fill="#FEFFFF"/>
<path d="M156.515 55.5455H162.576V61.6061H156.515V55.5455Z" fill="#FEFFFF"/>
<path d="M162.576 55.5455H168.636V61.6061H162.576V55.5455Z" fill="#FEFFFF"/>
<path d="M168.636 55.5455H174.697V61.6061H168.636V55.5455Z" fill="#FEFFFF"/>
<path d="M180.758 55.5455H186.818V61.6061H180.758V55.5455Z" fill="#FEFFFF"/>
<path d="M192.879 55.5455H198.939V61.6061H192.879V55.5455Z" fill="#FEFFFF"/>
<path d="M198.939 55.5455H205V61.6061H198.939V55.5455Z" fill="#FEFFFF"/>
<path d="M11.0606 61.6061H17.1212V67.6667H11.0606V61.6061Z" fill="#FEFFFF"/>
<path d="M23.1818 61.6061H29.2424V67.6667H23.1818V61.6061Z" fill="#FEFFFF"/>
<path d="M29.2424 61.6061H35.303V67.6667H29.2424V61.6061Z" fill="#FEFFFF"/>
<path d="M41.3636 61.6061H47.4242V67.6667H41.3636V61.6061Z" fill="#FEFFFF"/>
<path d="M47.4242 61.6061H53.4848V67.6667H47.4242V61.6061Z" fill="#FEFFFF"/>
<path d="M83.7879 61.6061H89.8485V67.6667H83.7879V61.6061Z" fill="#FEFFFF"/>
<path d="M95.9091 61.6061H101.97V67.6667H95.9091V61.6061Z" fill="#FEFFFF"/>
<path d="M101.97 61.6061H108.03V67.6667H101.97V61.6061Z" fill="#FEFFFF"/>
<path d="M108.03 61.6061H114.091V67.6667H108.03V61.6061Z" fill="#FEFFFF"/>
<path d="M114.091 61.6061H120.152V67.6667H114.091V61.6061Z" fill="#FEFFFF"/>
<path d="M132.273 61.6061H138.333V67.6667H132.273V61.6061Z" fill="#FEFFFF"/>
<path d="M138.333 61.6061H144.394V67.6667H138.333V61.6061Z" fill="#FEFFFF"/>
<path d="M144.394 61.6061H150.455V67.6667H144.394V61.6061Z" fill="#FEFFFF"/>
<path d="M168.636 61.6061H174.697V67.6667H168.636V61.6061Z" fill="#FEFFFF"/>
<path d="M174.697 61.6061H180.758V67.6667H174.697V61.6061Z" fill="#FEFFFF"/>
<path d="M186.818 61.6061H192.879V67.6667H186.818V61.6061Z" fill="#FEFFFF"/>
<path d="M198.939 61.6061H205V67.6667H198.939V61.6061Z" fill="#FEFFFF"/>
<path d="M5 67.6667H11.0606V73.7273H5V67.6667Z" fill="#FEFFFF"/>
<path d="M17.1212 67.6667H23.1818V73.7273H17.1212V67.6667Z" fill="#FEFFFF"/>
<path d="M35.303 67.6667H41.3636V73.7273H35.303V67.6667Z" fill="#FEFFFF"/>
<path d="M47.4242 67.6667H53.4848V73.7273H47.4242V67.6667Z" fill="#FEFFFF"/>
<path d="M53.4848 67.6667H59.5455V73.7273H53.4848V67.6667Z" fill="#FEFFFF"/>
<path d="M59.5455 67.6667H65.6061V73.7273H59.5455V67.6667Z" fill="#FEFFFF"/>
<path d="M77.7273 67.6667H83.7879V73.7273H77.7273V67.6667Z" fill="#FEFFFF"/>
<path d="M101.97 67.6667H108.03V73.7273H101.97V67.6667Z" fill="#FEFFFF"/>
<path d="M120.152 67.6667H126.212V73.7273H120.152V67.6667Z" fill="#FEFFFF"/>
<path d="M126.212 67.6667H132.273V73.7273H126.212V67.6667Z" fill="#FEFFFF"/>
<path d="M138.333 67.6667H144.394V73.7273H138.333V67.6667Z" fill="#FEFFFF"/>
<path d="M144.394 67.6667H150.455V73.7273H144.394V67.6667Z" fill="#FEFFFF"/>
<path d="M150.455 67.6667H156.515V73.7273H150.455V67.6667Z" fill="#FEFFFF"/>
<path d="M162.576 67.6667H168.636V73.7273H162.576V67.6667Z" fill="#FEFFFF"/>
<path d="M168.636 67.6667H174.697V73.7273H168.636V67.6667Z" fill="#FEFFFF"/>
<path d="M180.758 67.6667H186.818V73.7273H180.758V67.6667Z" fill="#FEFFFF"/>
<path d="M192.879 67.6667H198.939V73.7273H192.879V67.6667Z" fill="#FEFFFF"/>
<path d="M198.939 67.6667H205V73.7273H198.939V67.6667Z" fill="#FEFFFF"/>
<path d="M11.0606 73.7273H17.1212V79.7879H11.0606V73.7273Z" fill="#FEFFFF"/>
<path d="M17.1212 73.7273H23.1818V79.7879H17.1212V73.7273Z" fill="#FEFFFF"/>
<path d="M29.2424 73.7273H35.303V79.7879H29.2424V73.7273Z" fill="#FEFFFF"/>
<path d="M41.3636 73.7273H47.4242V79.7879H41.3636V73.7273Z" fill="#FEFFFF"/>
<path d="M53.4848 73.7273H59.5455V79.7879H53.4848V73.7273Z" fill="#FEFFFF"/>
<path d="M59.5455 73.7273H65.6061V79.7879H59.5455V73.7273Z" fill="#FEFFFF"/>
<path d="M71.6667 73.7273H77.7273V79.7879H71.6667V73.7273Z" fill="#FEFFFF"/>
<path d="M77.7273 73.7273H83.7879V79.7879H77.7273V73.7273Z" fill="#FEFFFF"/>
<path d="M83.7879 73.7273H89.8485V79.7879H83.7879V73.7273Z" fill="#FEFFFF"/>
<path d="M89.8485 73.7273H95.9091V79.7879H89.8485V73.7273Z" fill="#FEFFFF"/>
<path d="M101.97 73.7273H108.03V79.7879H101.97V73.7273Z" fill="#FEFFFF"/>
<path d="M114.091 73.7273H120.152V79.7879H114.091V73.7273Z" fill="#FEFFFF"/>
<path d="M132.273 73.7273H138.333V79.7879H132.273V73.7273Z" fill="#FEFFFF"/>
<path d="M138.333 73.7273H144.394V79.7879H138.333V73.7273Z" fill="#FEFFFF"/>
<path d="M150.455 73.7273H156.515V79.7879H150.455V73.7273Z" fill="#FEFFFF"/>
<path d="M162.576 73.7273H168.636V79.7879H162.576V73.7273Z" fill="#FEFFFF"/>
<path d="M174.697 73.7273H180.758V79.7879H174.697V73.7273Z" fill="#FEFFFF"/>
<path d="M180.758 73.7273H186.818V79.7879H180.758V73.7273Z" fill="#FEFFFF"/>
<path d="M198.939 73.7273H205V79.7879H198.939V73.7273Z" fill="#FEFFFF"/>
<path d="M5 79.7879H11.0606V85.8485H5V79.7879Z" fill="#FEFFFF"/>
<path d="M11.0606 79.7879H17.1212V85.8485H11.0606V79.7879Z" fill="#FEFFFF"/>
<path d="M17.1212 79.7879H23.1818V85.8485H17.1212V79.7879Z" fill="#FEFFFF"/>
<path d="M23.1818 79.7879H29.2424V85.8485H23.1818V79.7879Z" fill="#FEFFFF"/>
<path d="M47.4242 79.7879H53.4848V85.8485H47.4242V79.7879Z" fill="#FEFFFF"/>
<path d="M59.5455 79.7879H65.6061V85.8485H59.5455V79.7879Z" fill="#FEFFFF"/>
<path d="M65.6061 79.7879H71.6667V85.8485H65.6061V79.7879Z" fill="#FEFFFF"/>
<path d="M95.9091 79.7879H101.97V85.8485H95.9091V79.7879Z" fill="#FEFFFF"/>
<path d="M108.03 79.7879H114.091V85.8485H108.03V79.7879Z" fill="#FEFFFF"/>
<path d="M114.091 79.7879H120.152V85.8485H114.091V79.7879Z" fill="#FEFFFF"/>
<path d="M120.152 79.7879H126.212V85.8485H120.152V79.7879Z" fill="#FEFFFF"/>
<path d="M126.212 79.7879H132.273V85.8485H126.212V79.7879Z" fill="#FEFFFF"/>
<path d="M132.273 79.7879H138.333V85.8485H132.273V79.7879Z" fill="#FEFFFF"/>
<path d="M138.333 79.7879H144.394V85.8485H138.333V79.7879Z" fill="#FEFFFF"/>
<path d="M144.394 79.7879H150.455V85.8485H144.394V79.7879Z" fill="#FEFFFF"/>
<path d="M150.455 79.7879H156.515V85.8485H150.455V79.7879Z" fill="#FEFFFF"/>
<path d="M156.515 79.7879H162.576V85.8485H156.515V79.7879Z" fill="#FEFFFF"/>
<path d="M162.576 79.7879H168.636V85.8485H162.576V79.7879Z" fill="#FEFFFF"/>
<path d="M198.939 79.7879H205V85.8485H198.939V79.7879Z" fill="#FEFFFF"/>
<path d="M11.0606 85.8485H17.1212V91.9091H11.0606V85.8485Z" fill="#FEFFFF"/>
<path d="M35.303 85.8485H41.3636V91.9091H35.303V85.8485Z" fill="#FEFFFF"/>
<path d="M41.3636 85.8485H47.4242V91.9091H41.3636V85.8485Z" fill="#FEFFFF"/>
<path d="M47.4242 85.8485H53.4848V91.9091H47.4242V85.8485Z" fill="#FEFFFF"/>
<path d="M71.6667 85.8485H77.7273V91.9091H71.6667V85.8485Z" fill="#FEFFFF"/>
<path d="M83.7879 85.8485H89.8485V91.9091H83.7879V85.8485Z" fill="#FEFFFF"/>
<path d="M89.8485 85.8485H95.9091V91.9091H89.8485V85.8485Z" fill="#FEFFFF"/>
<path d="M95.9091 85.8485H101.97V91.9091H95.9091V85.8485Z" fill="#FEFFFF"/>
<path d="M108.03 85.8485H114.091V91.9091H108.03V85.8485Z" fill="#FEFFFF"/>
<path d="M114.091 85.8485H120.152V91.9091H114.091V85.8485Z" fill="#FEFFFF"/>
<path d="M126.212 85.8485H132.273V91.9091H126.212V85.8485Z" fill="#FEFFFF"/>
<path d="M144.394 85.8485H150.455V91.9091H144.394V85.8485Z" fill="#FEFFFF"/>
<path d="M156.515 85.8485H162.576V91.9091H156.515V85.8485Z" fill="#FEFFFF"/>
<path d="M162.576 85.8485H168.636V91.9091H162.576V85.8485Z" fill="#FEFFFF"/>
<path d="M174.697 85.8485H180.758V91.9091H174.697V85.8485Z" fill="#FEFFFF"/>
<path d="M186.818 85.8485H192.879V91.9091H186.818V85.8485Z" fill="#FEFFFF"/>
<path d="M198.939 85.8485H205V91.9091H198.939V85.8485Z" fill="#FEFFFF"/>
<path d="M5 91.9091H11.0606V97.9697H5V91.9091Z" fill="#FEFFFF"/>
<path d="M23.1818 91.9091H29.2424V97.9697H23.1818V91.9091Z" fill="#FEFFFF"/>
<path d="M47.4242 91.9091H53.4848V97.9697H47.4242V91.9091Z" fill="#FEFFFF"/>
<path d="M59.5455 91.9091H65.6061V97.9697H59.5455V91.9091Z" fill="#FEFFFF"/>
<path d="M65.6061 91.9091H71.6667V97.9697H65.6061V91.9091Z" fill="#FEFFFF"/>
<path d="M77.7273 91.9091H83.7879V97.9697H77.7273V91.9091Z" fill="#FEFFFF"/>
<path d="M95.9091 91.9091H101.97V97.9697H95.9091V91.9091Z" fill="#FEFFFF"/>
<path d="M108.03 91.9091H114.091V97.9697H108.03V91.9091Z" fill="#FEFFFF"/>
<path d="M120.152 91.9091H126.212V97.9697H120.152V91.9091Z" fill="#FEFFFF"/>
<path d="M138.333 91.9091H144.394V97.9697H138.333V91.9091Z" fill="#FEFFFF"/>
<path d="M156.515 91.9091H162.576V97.9697H156.515V91.9091Z" fill="#FEFFFF"/>
<path d="M192.879 91.9091H198.939V97.9697H192.879V91.9091Z" fill="#FEFFFF"/>
<path d="M5 97.9697H11.0606V104.03H5V97.9697Z" fill="#FEFFFF"/>
<path d="M29.2424 97.9697H35.303V104.03H29.2424V97.9697Z" fill="#FEFFFF"/>
<path d="M41.3636 97.9697H47.4242V104.03H41.3636V97.9697Z" fill="#FEFFFF"/>
<path d="M65.6061 97.9697H71.6667V104.03H65.6061V97.9697Z" fill="#FEFFFF"/>
<path d="M71.6667 97.9697H77.7273V104.03H71.6667V97.9697Z" fill="#FEFFFF"/>
<path d="M89.8485 97.9697H95.9091V104.03H89.8485V97.9697Z" fill="#FEFFFF"/>
<path d="M95.9091 97.9697H101.97V104.03H95.9091V97.9697Z" fill="#FEFFFF"/>
<path d="M108.03 97.9697H114.091V104.03H108.03V97.9697Z" fill="#FEFFFF"/>
<path d="M114.091 97.9697H120.152V104.03H114.091V97.9697Z" fill="#FEFFFF"/>
<path d="M120.152 97.9697H126.212V104.03H120.152V97.9697Z" fill="#FEFFFF"/>
<path d="M126.212 97.9697H132.273V104.03H126.212V97.9697Z" fill="#FEFFFF"/>
<path d="M138.333 97.9697H144.394V104.03H138.333V97.9697Z" fill="#FEFFFF"/>
<path d="M156.515 97.9697H162.576V104.03H156.515V97.9697Z" fill="#FEFFFF"/>
<path d="M162.576 97.9697H168.636V104.03H162.576V97.9697Z" fill="#FEFFFF"/>
<path d="M168.636 97.9697H174.697V104.03H168.636V97.9697Z" fill="#FEFFFF"/>
<path d="M186.818 97.9697H192.879V104.03H186.818V97.9697Z" fill="#FEFFFF"/>
<path d="M192.879 97.9697H198.939V104.03H192.879V97.9697Z" fill="#FEFFFF"/>
<path d="M11.0606 104.03H17.1212V110.091H11.0606V104.03Z" fill="#FEFFFF"/>
<path d="M17.1212 104.03H23.1818V110.091H17.1212V104.03Z" fill="#FEFFFF"/>
<path d="M29.2424 104.03H35.303V110.091H29.2424V104.03Z" fill="#FEFFFF"/>
<path d="M47.4242 104.03H53.4848V110.091H47.4242V104.03Z" fill="#FEFFFF"/>
<path d="M65.6061 104.03H71.6667V110.091H65.6061V104.03Z" fill="#FEFFFF"/>
<path d="M71.6667 104.03H77.7273V110.091H71.6667V104.03Z" fill="#FEFFFF"/>
<path d="M89.8485 104.03H95.9091V110.091H89.8485V104.03Z" fill="#FEFFFF"/>
<path d="M95.9091 104.03H101.97V110.091H95.9091V104.03Z" fill="#FEFFFF"/>
<path d="M108.03 104.03H114.091V110.091H108.03V104.03Z" fill="#FEFFFF"/>
<path d="M114.091 104.03H120.152V110.091H114.091V104.03Z" fill="#FEFFFF"/>
<path d="M120.152 104.03H126.212V110.091H120.152V104.03Z" fill="#FEFFFF"/>
<path d="M126.212 104.03H132.273V110.091H126.212V104.03Z" fill="#FEFFFF"/>
<path d="M132.273 104.03H138.333V110.091H132.273V104.03Z" fill="#FEFFFF"/>
<path d="M144.394 104.03H150.455V110.091H144.394V104.03Z" fill="#FEFFFF"/>
<path d="M162.576 104.03H168.636V110.091H162.576V104.03Z" fill="#FEFFFF"/>
<path d="M168.636 104.03H174.697V110.091H168.636V104.03Z" fill="#FEFFFF"/>
<path d="M186.818 104.03H192.879V110.091H186.818V104.03Z" fill="#FEFFFF"/>
<path d="M35.303 110.091H41.3636V116.152H35.303V110.091Z" fill="#FEFFFF"/>
<path d="M41.3636 110.091H47.4242V116.152H41.3636V110.091Z" fill="#FEFFFF"/>
<path d="M47.4242 110.091H53.4848V116.152H47.4242V110.091Z" fill="#FEFFFF"/>
<path d="M53.4848 110.091H59.5455V116.152H53.4848V110.091Z" fill="#FEFFFF"/>
<path d="M59.5455 110.091H65.6061V116.152H59.5455V110.091Z" fill="#FEFFFF"/>
<path d="M65.6061 110.091H71.6667V116.152H65.6061V110.091Z" fill="#FEFFFF"/>
<path d="M71.6667 110.091H77.7273V116.152H71.6667V110.091Z" fill="#FEFFFF"/>
<path d="M77.7273 110.091H83.7879V116.152H77.7273V110.091Z" fill="#FEFFFF"/>
<path d="M83.7879 110.091H89.8485V116.152H83.7879V110.091Z" fill="#FEFFFF"/>
<path d="M95.9091 110.091H101.97V116.152H95.9091V110.091Z" fill="#FEFFFF"/>
<path d="M114.091 110.091H120.152V116.152H114.091V110.091Z" fill="#FEFFFF"/>
<path d="M120.152 110.091H126.212V116.152H120.152V110.091Z" fill="#FEFFFF"/>
<path d="M126.212 110.091H132.273V116.152H126.212V110.091Z" fill="#FEFFFF"/>
<path d="M132.273 110.091H138.333V116.152H132.273V110.091Z" fill="#FEFFFF"/>
<path d="M138.333 110.091H144.394V116.152H138.333V110.091Z" fill="#FEFFFF"/>
<path d="M144.394 110.091H150.455V116.152H144.394V110.091Z" fill="#FEFFFF"/>
<path d="M174.697 110.091H180.758V116.152H174.697V110.091Z" fill="#FEFFFF"/>
<path d="M180.758 110.091H186.818V116.152H180.758V110.091Z" fill="#FEFFFF"/>
<path d="M186.818 110.091H192.879V116.152H186.818V110.091Z" fill="#FEFFFF"/>
<path d="M5 116.152H11.0606V122.212H5V116.152Z" fill="#FEFFFF"/>
<path d="M11.0606 116.152H17.1212V122.212H11.0606V116.152Z" fill="#FEFFFF"/>
<path d="M23.1818 116.152H29.2424V122.212H23.1818V116.152Z" fill="#FEFFFF"/>
<path d="M29.2424 116.152H35.303V122.212H29.2424V116.152Z" fill="#FEFFFF"/>
<path d="M59.5455 116.152H65.6061V122.212H59.5455V116.152Z" fill="#FEFFFF"/>
<path d="M83.7879 116.152H89.8485V122.212H83.7879V116.152Z" fill="#FEFFFF"/>
<path d="M89.8485 116.152H95.9091V122.212H89.8485V116.152Z" fill="#FEFFFF"/>
<path d="M95.9091 116.152H101.97V122.212H95.9091V116.152Z" fill="#FEFFFF"/>
<path d="M101.97 116.152H108.03V122.212H101.97V116.152Z" fill="#FEFFFF"/>
<path d="M108.03 116.152H114.091V122.212H108.03V116.152Z" fill="#FEFFFF"/>
<path d="M120.152 116.152H126.212V122.212H120.152V116.152Z" fill="#FEFFFF"/>
<path d="M138.333 116.152H144.394V122.212H138.333V116.152Z" fill="#FEFFFF"/>
<path d="M144.394 116.152H150.455V122.212H144.394V116.152Z" fill="#FEFFFF"/>
<path d="M162.576 116.152H168.636V122.212H162.576V116.152Z" fill="#FEFFFF"/>
<path d="M174.697 116.152H180.758V122.212H174.697V116.152Z" fill="#FEFFFF"/>
<path d="M180.758 116.152H186.818V122.212H180.758V116.152Z" fill="#FEFFFF"/>
<path d="M198.939 116.152H205V122.212H198.939V116.152Z" fill="#FEFFFF"/>
<path d="M23.1818 122.212H29.2424V128.273H23.1818V122.212Z" fill="#FEFFFF"/>
<path d="M29.2424 122.212H35.303V128.273H29.2424V122.212Z" fill="#FEFFFF"/>
<path d="M35.303 122.212H41.3636V128.273H35.303V122.212Z" fill="#FEFFFF"/>
<path d="M41.3636 122.212H47.4242V128.273H41.3636V122.212Z" fill="#FEFFFF"/>
<path d="M59.5455 122.212H65.6061V128.273H59.5455V122.212Z" fill="#FEFFFF"/>
<path d="M65.6061 122.212H71.6667V128.273H65.6061V122.212Z" fill="#FEFFFF"/>
<path d="M71.6667 122.212H77.7273V128.273H71.6667V122.212Z" fill="#FEFFFF"/>
<path d="M83.7879 122.212H89.8485V128.273H83.7879V122.212Z" fill="#FEFFFF"/>
<path d="M89.8485 122.212H95.9091V128.273H89.8485V122.212Z" fill="#FEFFFF"/>
<path d="M95.9091 122.212H101.97V128.273H95.9091V122.212Z" fill="#FEFFFF"/>
<path d="M101.97 122.212H108.03V128.273H101.97V122.212Z" fill="#FEFFFF"/>
<path d="M114.091 122.212H120.152V128.273H114.091V122.212Z" fill="#FEFFFF"/>
<path d="M120.152 122.212H126.212V128.273H120.152V122.212Z" fill="#FEFFFF"/>
<path d="M126.212 122.212H132.273V128.273H126.212V122.212Z" fill="#FEFFFF"/>
<path d="M144.394 122.212H150.455V128.273H144.394V122.212Z" fill="#FEFFFF"/>
<path d="M168.636 122.212H174.697V128.273H168.636V122.212Z" fill="#FEFFFF"/>
<path d="M29.2424 128.273H35.303V134.333H29.2424V128.273Z" fill="#FEFFFF"/>
<path d="M35.303 128.273H41.3636V134.333H35.303V128.273Z" fill="#FEFFFF"/>
<path d="M47.4242 128.273H53.4848V134.333H47.4242V128.273Z" fill="#FEFFFF"/>
<path d="M59.5455 128.273H65.6061V134.333H59.5455V128.273Z" fill="#FEFFFF"/>
<path d="M71.6667 128.273H77.7273V134.333H71.6667V128.273Z" fill="#FEFFFF"/>
<path d="M95.9091 128.273H101.97V134.333H95.9091V128.273Z" fill="#FEFFFF"/>
<path d="M108.03 128.273H114.091V134.333H108.03V128.273Z" fill="#FEFFFF"/>
<path d="M126.212 128.273H132.273V134.333H126.212V128.273Z" fill="#FEFFFF"/>
<path d="M138.333 128.273H144.394V134.333H138.333V128.273Z" fill="#FEFFFF"/>
<path d="M180.758 128.273H186.818V134.333H180.758V128.273Z" fill="#FEFFFF"/>
<path d="M198.939 128.273H205V134.333H198.939V128.273Z" fill="#FEFFFF"/>
<path d="M5 134.333H11.0606V140.394H5V134.333Z" fill="#FEFFFF"/>
<path d="M11.0606 134.333H17.1212V140.394H11.0606V134.333Z" fill="#FEFFFF"/>
<path d="M17.1212 134.333H23.1818V140.394H17.1212V134.333Z" fill="#FEFFFF"/>
<path d="M41.3636 134.333H47.4242V140.394H41.3636V134.333Z" fill="#FEFFFF"/>
<path d="M47.4242 134.333H53.4848V140.394H47.4242V134.333Z" fill="#FEFFFF"/>
<path d="M59.5455 134.333H65.6061V140.394H59.5455V134.333Z" fill="#FEFFFF"/>
<path d="M71.6667 134.333H77.7273V140.394H71.6667V134.333Z" fill="#FEFFFF"/>
<path d="M77.7273 134.333H83.7879V140.394H77.7273V134.333Z" fill="#FEFFFF"/>
<path d="M83.7879 134.333H89.8485V140.394H83.7879V134.333Z" fill="#FEFFFF"/>
<path d="M89.8485 134.333H95.9091V140.394H89.8485V134.333Z" fill="#FEFFFF"/>
<path d="M114.091 134.333H120.152V140.394H114.091V134.333Z" fill="#FEFFFF"/>
<path d="M120.152 134.333H126.212V140.394H120.152V134.333Z" fill="#FEFFFF"/>
<path d="M144.394 134.333H150.455V140.394H144.394V134.333Z" fill="#FEFFFF"/>
<path d="M156.515 134.333H162.576V140.394H156.515V134.333Z" fill="#FEFFFF"/>
<path d="M162.576 134.333H168.636V140.394H162.576V134.333Z" fill="#FEFFFF"/>
<path d="M198.939 134.333H205V140.394H198.939V134.333Z" fill="#FEFFFF"/>
<path d="M17.1212 140.394H23.1818V146.455H17.1212V140.394Z" fill="#FEFFFF"/>
<path d="M35.303 140.394H41.3636V146.455H35.303V140.394Z" fill="#FEFFFF"/>
<path d="M59.5455 140.394H65.6061V146.455H59.5455V140.394Z" fill="#FEFFFF"/>
<path d="M65.6061 140.394H71.6667V146.455H65.6061V140.394Z" fill="#FEFFFF"/>
<path d="M77.7273 140.394H83.7879V146.455H77.7273V140.394Z" fill="#FEFFFF"/>
<path d="M95.9091 140.394H101.97V146.455H95.9091V140.394Z" fill="#FEFFFF"/>
<path d="M108.03 140.394H114.091V146.455H108.03V140.394Z" fill="#FEFFFF"/>
<path d="M120.152 140.394H126.212V146.455H120.152V140.394Z" fill="#FEFFFF"/>
<path d="M126.212 140.394H132.273V146.455H126.212V140.394Z" fill="#FEFFFF"/>
<path d="M138.333 140.394H144.394V146.455H138.333V140.394Z" fill="#FEFFFF"/>
<path d="M168.636 140.394H174.697V146.455H168.636V140.394Z" fill="#FEFFFF"/>
<path d="M180.758 140.394H186.818V146.455H180.758V140.394Z" fill="#FEFFFF"/>
<path d="M5 146.455H11.0606V152.515H5V146.455Z" fill="#FEFFFF"/>
<path d="M11.0606 146.455H17.1212V152.515H11.0606V146.455Z" fill="#FEFFFF"/>
<path d="M17.1212 146.455H23.1818V152.515H17.1212V146.455Z" fill="#FEFFFF"/>
<path d="M23.1818 146.455H29.2424V152.515H23.1818V146.455Z" fill="#FEFFFF"/>
<path d="M41.3636 146.455H47.4242V152.515H41.3636V146.455Z" fill="#FEFFFF"/>
<path d="M47.4242 146.455H53.4848V152.515H47.4242V146.455Z" fill="#FEFFFF"/>
<path d="M59.5455 146.455H65.6061V152.515H59.5455V146.455Z" fill="#FEFFFF"/>
<path d="M65.6061 146.455H71.6667V152.515H65.6061V146.455Z" fill="#FEFFFF"/>
<path d="M71.6667 146.455H77.7273V152.515H71.6667V146.455Z" fill="#FEFFFF"/>
<path d="M83.7879 146.455H89.8485V152.515H83.7879V146.455Z" fill="#FEFFFF"/>
<path d="M95.9091 146.455H101.97V152.515H95.9091V146.455Z" fill="#FEFFFF"/>
<path d="M101.97 146.455H108.03V152.515H101.97V146.455Z" fill="#FEFFFF"/>
<path d="M108.03 146.455H114.091V152.515H108.03V146.455Z" fill="#FEFFFF"/>
<path d="M120.152 146.455H126.212V152.515H120.152V146.455Z" fill="#FEFFFF"/>
<path d="M126.212 146.455H132.273V152.515H126.212V146.455Z" fill="#FEFFFF"/>
<path d="M132.273 146.455H138.333V152.515H132.273V146.455Z" fill="#FEFFFF"/>
<path d="M138.333 146.455H144.394V152.515H138.333V146.455Z" fill="#FEFFFF"/>
<path d="M144.394 146.455H150.455V152.515H144.394V146.455Z" fill="#FEFFFF"/>
<path d="M150.455 146.455H156.515V152.515H150.455V146.455Z" fill="#FEFFFF"/>
<path d="M156.515 146.455H162.576V152.515H156.515V146.455Z" fill="#FEFFFF"/>
<path d="M162.576 146.455H168.636V152.515H162.576V146.455Z" fill="#FEFFFF"/>
<path d="M168.636 146.455H174.697V152.515H168.636V146.455Z" fill="#FEFFFF"/>
<path d="M174.697 146.455H180.758V152.515H174.697V146.455Z" fill="#FEFFFF"/>
<path d="M192.879 146.455H198.939V152.515H192.879V146.455Z" fill="#FEFFFF"/>
<path d="M198.939 146.455H205V152.515H198.939V146.455Z" fill="#FEFFFF"/>
<path d="M53.4848 152.515H59.5455V158.576H53.4848V152.515Z" fill="#FEFFFF"/>
<path d="M65.6061 152.515H71.6667V158.576H65.6061V152.515Z" fill="#FEFFFF"/>
<path d="M77.7273 152.515H83.7879V158.576H77.7273V152.515Z" fill="#FEFFFF"/>
<path d="M95.9091 152.515H101.97V158.576H95.9091V152.515Z" fill="#FEFFFF"/>
<path d="M126.212 152.515H132.273V158.576H126.212V152.515Z" fill="#FEFFFF"/>
<path d="M132.273 152.515H138.333V158.576H132.273V152.515Z" fill="#FEFFFF"/>
<path d="M150.455 152.515H156.515V158.576H150.455V152.515Z" fill="#FEFFFF"/>
<path d="M174.697 152.515H180.758V158.576H174.697V152.515Z" fill="#FEFFFF"/>
<path d="M180.758 152.515H186.818V158.576H180.758V152.515Z" fill="#FEFFFF"/>
<path d="M192.879 152.515H198.939V158.576H192.879V152.515Z" fill="#FEFFFF"/>
<path d="M198.939 152.515H205V158.576H198.939V152.515Z" fill="#FEFFFF"/>
<path d="M5 158.576H11.0606V164.636H5V158.576Z" fill="#FEFFFF"/>
<path d="M11.0606 158.576H17.1212V164.636H11.0606V158.576Z" fill="#FEFFFF"/>
<path d="M17.1212 158.576H23.1818V164.636H17.1212V158.576Z" fill="#FEFFFF"/>
<path d="M23.1818 158.576H29.2424V164.636H23.1818V158.576Z" fill="#FEFFFF"/>
<path d="M29.2424 158.576H35.303V164.636H29.2424V158.576Z" fill="#FEFFFF"/>
<path d="M35.303 158.576H41.3636V164.636H35.303V158.576Z" fill="#FEFFFF"/>
<path d="M41.3636 158.576H47.4242V164.636H41.3636V158.576Z" fill="#FEFFFF"/>
<path d="M53.4848 158.576H59.5455V164.636H53.4848V158.576Z" fill="#FEFFFF"/>
<path d="M65.6061 158.576H71.6667V164.636H65.6061V158.576Z" fill="#FEFFFF"/>
<path d="M77.7273 158.576H83.7879V164.636H77.7273V158.576Z" fill="#FEFFFF"/>
<path d="M95.9091 158.576H101.97V164.636H95.9091V158.576Z" fill="#FEFFFF"/>
<path d="M101.97 158.576H108.03V164.636H101.97V158.576Z" fill="#FEFFFF"/>
<path d="M108.03 158.576H114.091V164.636H108.03V158.576Z" fill="#FEFFFF"/>
<path d="M114.091 158.576H120.152V164.636H114.091V158.576Z" fill="#FEFFFF"/>
<path d="M126.212 158.576H132.273V164.636H126.212V158.576Z" fill="#FEFFFF"/>
<path d="M150.455 158.576H156.515V164.636H150.455V158.576Z" fill="#FEFFFF"/>
<path d="M162.576 158.576H168.636V164.636H162.576V158.576Z" fill="#FEFFFF"/>
<path d="M174.697 158.576H180.758V164.636H174.697V158.576Z" fill="#FEFFFF"/>
<path d="M180.758 158.576H186.818V164.636H180.758V158.576Z" fill="#FEFFFF"/>
<path d="M186.818 158.576H192.879V164.636H186.818V158.576Z" fill="#FEFFFF"/>
<path d="M198.939 158.576H205V164.636H198.939V158.576Z" fill="#FEFFFF"/>
<path d="M5 164.636H11.0606V170.697H5V164.636Z" fill="#FEFFFF"/>
<path d="M41.3636 164.636H47.4242V170.697H41.3636V164.636Z" fill="#FEFFFF"/>
<path d="M53.4848 164.636H59.5455V170.697H53.4848V164.636Z" fill="#FEFFFF"/>
<path d="M65.6061 164.636H71.6667V170.697H65.6061V164.636Z" fill="#FEFFFF"/>
<path d="M71.6667 164.636H77.7273V170.697H71.6667V164.636Z" fill="#FEFFFF"/>
<path d="M77.7273 164.636H83.7879V170.697H77.7273V164.636Z" fill="#FEFFFF"/>
<path d="M83.7879 164.636H89.8485V170.697H83.7879V164.636Z" fill="#FEFFFF"/>
<path d="M95.9091 164.636H101.97V170.697H95.9091V164.636Z" fill="#FEFFFF"/>
<path d="M114.091 164.636H120.152V170.697H114.091V164.636Z" fill="#FEFFFF"/>
<path d="M120.152 164.636H126.212V170.697H120.152V164.636Z" fill="#FEFFFF"/>
<path d="M126.212 164.636H132.273V170.697H126.212V164.636Z" fill="#FEFFFF"/>
<path d="M132.273 164.636H138.333V170.697H132.273V164.636Z" fill="#FEFFFF"/>
<path d="M144.394 164.636H150.455V170.697H144.394V164.636Z" fill="#FEFFFF"/>
<path d="M150.455 164.636H156.515V170.697H150.455V164.636Z" fill="#FEFFFF"/>
<path d="M174.697 164.636H180.758V170.697H174.697V164.636Z" fill="#FEFFFF"/>
<path d="M180.758 164.636H186.818V170.697H180.758V164.636Z" fill="#FEFFFF"/>
<path d="M192.879 164.636H198.939V170.697H192.879V164.636Z" fill="#FEFFFF"/>
<path d="M198.939 164.636H205V170.697H198.939V164.636Z" fill="#FEFFFF"/>
<path d="M5 170.697H11.0606V176.758H5V170.697Z" fill="#FEFFFF"/>
<path d="M17.1212 170.697H23.1818V176.758H17.1212V170.697Z" fill="#FEFFFF"/>
<path d="M23.1818 170.697H29.2424V176.758H23.1818V170.697Z" fill="#FEFFFF"/>
<path d="M29.2424 170.697H35.303V176.758H29.2424V170.697Z" fill="#FEFFFF"/>
<path d="M41.3636 170.697H47.4242V176.758H41.3636V170.697Z" fill="#FEFFFF"/>
<path d="M59.5455 170.697H65.6061V176.758H59.5455V170.697Z" fill="#FEFFFF"/>
<path d="M71.6667 170.697H77.7273V176.758H71.6667V170.697Z" fill="#FEFFFF"/>
<path d="M77.7273 170.697H83.7879V176.758H77.7273V170.697Z" fill="#FEFFFF"/>
<path d="M108.03 170.697H114.091V176.758H108.03V170.697Z" fill="#FEFFFF"/>
<path d="M120.152 170.697H126.212V176.758H120.152V170.697Z" fill="#FEFFFF"/>
<path d="M132.273 170.697H138.333V176.758H132.273V170.697Z" fill="#FEFFFF"/>
<path d="M144.394 170.697H150.455V176.758H144.394V170.697Z" fill="#FEFFFF"/>
<path d="M150.455 170.697H156.515V176.758H150.455V170.697Z" fill="#FEFFFF"/>
<path d="M156.515 170.697H162.576V176.758H156.515V170.697Z" fill="#FEFFFF"/>
<path d="M162.576 170.697H168.636V176.758H162.576V170.697Z" fill="#FEFFFF"/>
<path d="M168.636 170.697H174.697V176.758H168.636V170.697Z" fill="#FEFFFF"/>
<path d="M174.697 170.697H180.758V176.758H174.697V170.697Z" fill="#FEFFFF"/>
<path d="M180.758 170.697H186.818V176.758H180.758V170.697Z" fill="#FEFFFF"/>
<path d="M5 176.758H11.0606V182.818H5V176.758Z" fill="#FEFFFF"/>
<path d="M17.1212 176.758H23.1818V182.818H17.1212V176.758Z" fill="#FEFFFF"/>
<path d="M23.1818 176.758H29.2424V182.818H23.1818V176.758Z" fill="#FEFFFF"/>
<path d="M29.2424 176.758H35.303V182.818H29.2424V176.758Z" fill="#FEFFFF"/>
<path d="M41.3636 176.758H47.4242V182.818H41.3636V176.758Z" fill="#FEFFFF"/>
<path d="M59.5455 176.758H65.6061V182.818H59.5455V176.758Z" fill="#FEFFFF"/>
<path d="M71.6667 176.758H77.7273V182.818H71.6667V176.758Z" fill="#FEFFFF"/>
<path d="M95.9091 176.758H101.97V182.818H95.9091V176.758Z" fill="#FEFFFF"/>
<path d="M101.97 176.758H108.03V182.818H101.97V176.758Z" fill="#FEFFFF"/>
<path d="M108.03 176.758H114.091V182.818H108.03V176.758Z" fill="#FEFFFF"/>
<path d="M114.091 176.758H120.152V182.818H114.091V176.758Z" fill="#FEFFFF"/>
<path d="M120.152 176.758H126.212V182.818H120.152V176.758Z" fill="#FEFFFF"/>
<path d="M126.212 176.758H132.273V182.818H126.212V176.758Z" fill="#FEFFFF"/>
<path d="M132.273 176.758H138.333V182.818H132.273V176.758Z" fill="#FEFFFF"/>
<path d="M150.455 176.758H156.515V182.818H150.455V176.758Z" fill="#FEFFFF"/>
<path d="M156.515 176.758H162.576V182.818H156.515V176.758Z" fill="#FEFFFF"/>
<path d="M168.636 176.758H174.697V182.818H168.636V176.758Z" fill="#FEFFFF"/>
<path d="M174.697 176.758H180.758V182.818H174.697V176.758Z" fill="#FEFFFF"/>
<path d="M180.758 176.758H186.818V182.818H180.758V176.758Z" fill="#FEFFFF"/>
<path d="M186.818 176.758H192.879V182.818H186.818V176.758Z" fill="#FEFFFF"/>
<path d="M192.879 176.758H198.939V182.818H192.879V176.758Z" fill="#FEFFFF"/>
<path d="M5 182.818H11.0606V188.879H5V182.818Z" fill="#FEFFFF"/>
<path d="M17.1212 182.818H23.1818V188.879H17.1212V182.818Z" fill="#FEFFFF"/>
<path d="M23.1818 182.818H29.2424V188.879H23.1818V182.818Z" fill="#FEFFFF"/>
<path d="M29.2424 182.818H35.303V188.879H29.2424V182.818Z" fill="#FEFFFF"/>
<path d="M41.3636 182.818H47.4242V188.879H41.3636V182.818Z" fill="#FEFFFF"/>
<path d="M53.4848 182.818H59.5455V188.879H53.4848V182.818Z" fill="#FEFFFF"/>
<path d="M59.5455 182.818H65.6061V188.879H59.5455V182.818Z" fill="#FEFFFF"/>
<path d="M65.6061 182.818H71.6667V188.879H65.6061V182.818Z" fill="#FEFFFF"/>
<path d="M83.7879 182.818H89.8485V188.879H83.7879V182.818Z" fill="#FEFFFF"/>
<path d="M101.97 182.818H108.03V188.879H101.97V182.818Z" fill="#FEFFFF"/>
<path d="M120.152 182.818H126.212V188.879H120.152V182.818Z" fill="#FEFFFF"/>
<path d="M126.212 182.818H132.273V188.879H126.212V182.818Z" fill="#FEFFFF"/>
<path d="M132.273 182.818H138.333V188.879H132.273V182.818Z" fill="#FEFFFF"/>
<path d="M174.697 182.818H180.758V188.879H174.697V182.818Z" fill="#FEFFFF"/>
<path d="M180.758 182.818H186.818V188.879H180.758V182.818Z" fill="#FEFFFF"/>
<path d="M192.879 182.818H198.939V188.879H192.879V182.818Z" fill="#FEFFFF"/>
<path d="M198.939 182.818H205V188.879H198.939V182.818Z" fill="#FEFFFF"/>
<path d="M5 188.879H11.0606V194.939H5V188.879Z" fill="#FEFFFF"/>
<path d="M41.3636 188.879H47.4242V194.939H41.3636V188.879Z" fill="#FEFFFF"/>
<path d="M59.5455 188.879H65.6061V194.939H59.5455V188.879Z" fill="#FEFFFF"/>
<path d="M71.6667 188.879H77.7273V194.939H71.6667V188.879Z" fill="#FEFFFF"/>
<path d="M83.7879 188.879H89.8485V194.939H83.7879V188.879Z" fill="#FEFFFF"/>
<path d="M89.8485 188.879H95.9091V194.939H89.8485V188.879Z" fill="#FEFFFF"/>
<path d="M101.97 188.879H108.03V194.939H101.97V188.879Z" fill="#FEFFFF"/>
<path d="M114.091 188.879H120.152V194.939H114.091V188.879Z" fill="#FEFFFF"/>
<path d="M120.152 188.879H126.212V194.939H120.152V188.879Z" fill="#FEFFFF"/>
<path d="M126.212 188.879H132.273V194.939H126.212V188.879Z" fill="#FEFFFF"/>
<path d="M150.455 188.879H156.515V194.939H150.455V188.879Z" fill="#FEFFFF"/>
<path d="M156.515 188.879H162.576V194.939H156.515V188.879Z" fill="#FEFFFF"/>
<path d="M180.758 188.879H186.818V194.939H180.758V188.879Z" fill="#FEFFFF"/>
<path d="M186.818 188.879H192.879V194.939H186.818V188.879Z" fill="#FEFFFF"/>
<path d="M5 194.939H11.0606V201H5V194.939Z" fill="#FEFFFF"/>
<path d="M11.0606 194.939H17.1212V201H11.0606V194.939Z" fill="#FEFFFF"/>
<path d="M17.1212 194.939H23.1818V201H17.1212V194.939Z" fill="#FEFFFF"/>
<path d="M23.1818 194.939H29.2424V201H23.1818V194.939Z" fill="#FEFFFF"/>
<path d="M29.2424 194.939H35.303V201H29.2424V194.939Z" fill="#FEFFFF"/>
<path d="M35.303 194.939H41.3636V201H35.303V194.939Z" fill="#FEFFFF"/>
<path d="M41.3636 194.939H47.4242V201H41.3636V194.939Z" fill="#FEFFFF"/>
<path d="M77.7273 194.939H83.7879V201H77.7273V194.939Z" fill="#FEFFFF"/>
<path d="M83.7879 194.939H89.8485V201H83.7879V194.939Z" fill="#FEFFFF"/>
<path d="M89.8485 194.939H95.9091V201H89.8485V194.939Z" fill="#FEFFFF"/>
<path d="M95.9091 194.939H101.97V201H95.9091V194.939Z" fill="#FEFFFF"/>
<path d="M101.97 194.939H108.03V201H101.97V194.939Z" fill="#FEFFFF"/>
<path d="M114.091 194.939H120.152V201H114.091V194.939Z" fill="#FEFFFF"/>
<path d="M120.152 194.939H126.212V201H120.152V194.939Z" fill="#FEFFFF"/>
<path d="M132.273 194.939H138.333V201H132.273V194.939Z" fill="#FEFFFF"/>
<path d="M138.333 194.939H144.394V201H138.333V194.939Z" fill="#FEFFFF"/>
<path d="M150.455 194.939H156.515V201H150.455V194.939Z" fill="#FEFFFF"/>
<path d="M174.697 194.939H180.758V201H174.697V194.939Z" fill="#FEFFFF"/>
<path d="M180.758 194.939H186.818V201H180.758V194.939Z" fill="#FEFFFF"/>
<path d="M186.818 194.939H192.879V201H186.818V194.939Z" fill="#FEFFFF"/>
<path d="M198.939 194.939H205V201H198.939V194.939Z" fill="#FEFFFF"/>
<path d="M11.0606 1H5V7.06061M11.0606 1V7.06061M11.0606 1H17.1212M11.0606 7.06061H5M11.0606 7.06061H17.1212M11.0606 7.06061V13.1212M5 7.06061V13.1212M17.1212 1V7.06061M17.1212 1H23.1818M17.1212 7.06061H23.1818M23.1818 1V7.06061M23.1818 1H29.2424M23.1818 7.06061H29.2424M29.2424 1V7.06061M29.2424 1H35.303M29.2424 7.06061H35.303M35.303 1V7.06061M35.303 1H41.3636M35.303 7.06061H41.3636M41.3636 1V7.06061M41.3636 1H47.4242V7.06061M41.3636 7.06061H47.4242M41.3636 7.06061V13.1212M47.4242 7.06061V13.1212M71.6667 7.06061H77.7273V1H71.6667V7.06061ZM71.6667 7.06061H65.6061V13.1212M71.6667 7.06061V13.1212M95.9091 1H89.8485V7.06061M95.9091 1V7.06061M95.9091 1H101.97V7.06061M95.9091 7.06061H89.8485M95.9091 7.06061H101.97M95.9091 7.06061V13.1212M89.8485 7.06061H83.7879V13.1212M89.8485 7.06061V13.1212M101.97 7.06061V13.1212M101.97 7.06061H108.03M114.091 7.06061V1H108.03V7.06061M114.091 7.06061H108.03M114.091 7.06061V13.1212M114.091 7.06061H120.152M108.03 7.06061V13.1212M126.212 1H120.152V7.06061M126.212 1V7.06061M126.212 1H132.273V7.06061M126.212 7.06061H120.152M126.212 7.06061H132.273M120.152 7.06061V13.1212M132.273 7.06061H138.333M132.273 7.06061V13.1212M138.333 7.06061H144.394V1H138.333V7.06061ZM138.333 7.06061V13.1212M168.636 1H162.576V7.06061M168.636 1V7.06061M168.636 1H174.697M168.636 7.06061H162.576M168.636 7.06061H174.697M168.636 7.06061V13.1212M162.576 7.06061V13.1212M174.697 1V7.06061M174.697 1H180.758M174.697 7.06061H180.758M180.758 1V7.06061M180.758 1H186.818M180.758 7.06061H186.818M186.818 1V7.06061M186.818 1H192.879M186.818 7.06061H192.879M192.879 1V7.06061M192.879 1H198.939M192.879 7.06061H198.939M198.939 1V7.06061M198.939 1H205V7.06061M198.939 7.06061H205M198.939 7.06061V13.1212M205 7.06061V13.1212M11.0606 13.1212H5M11.0606 13.1212V19.1818M5 13.1212V19.1818M47.4242 13.1212H41.3636M47.4242 13.1212V19.1818M41.3636 13.1212V19.1818M59.5455 13.1212V7.06061H53.4848V13.1212M59.5455 13.1212H53.4848M59.5455 13.1212V19.1818M59.5455 13.1212H65.6061M53.4848 13.1212V19.1818M71.6667 13.1212H65.6061M71.6667 13.1212V19.1818M71.6667 13.1212H77.7273M65.6061 13.1212V19.1818M89.8485 13.1212H83.7879M89.8485 13.1212H95.9091M89.8485 13.1212V19.1818M83.7879 13.1212H77.7273M83.7879 13.1212V19.1818M95.9091 13.1212H101.97M95.9091 13.1212V19.1818M101.97 13.1212H108.03M101.97 13.1212V19.1818H95.9091M108.03 13.1212H114.091M108.03 13.1212V19.1818M114.091 13.1212H120.152M114.091 13.1212V19.1818M120.152 13.1212H126.212M120.152 13.1212V19.1818M138.333 13.1212H132.273M138.333 13.1212V19.1818M132.273 13.1212H126.212M132.273 13.1212V19.1818M168.636 13.1212H162.576M168.636 13.1212V19.1818M162.576 13.1212V19.1818M205 13.1212H198.939M205 13.1212V19.1818M198.939 13.1212V19.1818M11.0606 19.1818H5M11.0606 19.1818V25.2424M5 19.1818V25.2424M23.1818 13.1212H17.1212V19.1818M23.1818 13.1212V19.1818M23.1818 13.1212H29.2424M23.1818 19.1818H17.1212M23.1818 19.1818H29.2424M23.1818 19.1818V25.2424M17.1212 19.1818V25.2424M29.2424 13.1212V19.1818M29.2424 13.1212H35.303V19.1818M29.2424 19.1818H35.303M29.2424 19.1818V25.2424M35.303 19.1818V25.2424M47.4242 19.1818H41.3636M47.4242 19.1818V25.2424M41.3636 19.1818V25.2424M59.5455 19.1818H53.4848M59.5455 19.1818H65.6061M59.5455 19.1818V25.2424M53.4848 19.1818V25.2424M65.6061 19.1818H71.6667M65.6061 19.1818V25.2424M71.6667 19.1818H77.7273M77.7273 13.1212V19.1818M77.7273 19.1818H83.7879M83.7879 19.1818H89.8485M83.7879 19.1818V25.2424H89.8485M95.9091 19.1818H89.8485M95.9091 19.1818V25.2424M89.8485 19.1818V25.2424M114.091 19.1818H108.03M114.091 19.1818V25.2424M114.091 19.1818H120.152M108.03 19.1818V25.2424M126.212 13.1212V19.1818M126.212 19.1818H120.152M126.212 19.1818H132.273M126.212 19.1818V25.2424M120.152 19.1818V25.2424M132.273 19.1818H138.333M132.273 19.1818V25.2424M138.333 19.1818V25.2424M138.333 19.1818H144.394M150.455 19.1818H156.515V13.1212H150.455V19.1818ZM150.455 19.1818H144.394M150.455 19.1818V25.2424M168.636 19.1818H162.576M168.636 19.1818V25.2424M162.576 19.1818V25.2424M180.758 13.1212H174.697V19.1818M180.758 13.1212V19.1818M180.758 13.1212H186.818M180.758 19.1818H174.697M180.758 19.1818H186.818M180.758 19.1818V25.2424M174.697 19.1818V25.2424M186.818 13.1212V19.1818M186.818 13.1212H192.879V19.1818M186.818 19.1818H192.879M186.818 19.1818V25.2424M192.879 19.1818V25.2424M205 19.1818H198.939M205 19.1818V25.2424M198.939 19.1818V25.2424M11.0606 25.2424H5M11.0606 25.2424V31.303M5 25.2424V31.303M23.1818 25.2424H17.1212M23.1818 25.2424H29.2424M23.1818 25.2424V31.303M17.1212 25.2424V31.303H23.1818M29.2424 25.2424H35.303M29.2424 25.2424V31.303M35.303 25.2424V31.303H29.2424M47.4242 25.2424H41.3636M47.4242 25.2424V31.303M41.3636 25.2424V31.303M59.5455 25.2424H53.4848M59.5455 25.2424H65.6061M59.5455 25.2424V31.303M53.4848 25.2424V31.303M65.6061 25.2424V31.303M65.6061 25.2424H71.6667M89.8485 25.2424H95.9091M89.8485 25.2424V31.303M95.9091 25.2424V31.303H89.8485M114.091 25.2424H108.03M114.091 25.2424H120.152M114.091 25.2424V31.303M108.03 25.2424V31.303M120.152 25.2424H126.212M120.152 25.2424V31.303M126.212 25.2424V31.303M126.212 25.2424H132.273M138.333 25.2424H132.273M138.333 25.2424H144.394M138.333 25.2424V31.303M132.273 25.2424V31.303M144.394 19.1818V25.2424M144.394 25.2424H150.455M144.394 25.2424V31.303M150.455 25.2424V31.303M168.636 25.2424H162.576M168.636 25.2424V31.303M162.576 25.2424V31.303M180.758 25.2424H174.697M180.758 25.2424H186.818M180.758 25.2424V31.303M174.697 25.2424V31.303H180.758M186.818 25.2424H192.879M186.818 25.2424V31.303M192.879 25.2424V31.303H186.818M205 25.2424H198.939M205 25.2424V31.303M198.939 25.2424V31.303M11.0606 31.303H5M11.0606 31.303V37.3636M5 31.303V37.3636M23.1818 31.303H29.2424M47.4242 31.303H41.3636M47.4242 31.303V37.3636M41.3636 31.303V37.3636M59.5455 31.303H53.4848M59.5455 31.303H65.6061M59.5455 31.303V37.3636M53.4848 31.303V37.3636M65.6061 31.303H71.6667M65.6061 31.303V37.3636M71.6667 25.2424V31.303M71.6667 25.2424H77.7273V31.303M71.6667 31.303H77.7273M71.6667 31.303V37.3636M77.7273 31.303V37.3636M77.7273 31.303H83.7879M89.8485 31.303H83.7879M89.8485 31.303V37.3636M114.091 31.303H108.03M114.091 31.303H120.152M114.091 31.303V37.3636M108.03 31.303V37.3636M120.152 31.303H126.212M126.212 31.303H132.273M132.273 31.303H138.333M132.273 31.303V37.3636M138.333 31.303H144.394M138.333 31.303V37.3636M144.394 31.303H150.455M144.394 31.303V37.3636M150.455 31.303V37.3636M168.636 31.303H162.576M168.636 31.303V37.3636M162.576 31.303V37.3636M180.758 31.303H186.818M205 31.303H198.939M205 31.303V37.3636M198.939 31.303V37.3636M11.0606 37.3636H5M11.0606 37.3636V43.4242M11.0606 37.3636H17.1212M5 37.3636V43.4242H11.0606M47.4242 37.3636H41.3636M47.4242 37.3636V43.4242H41.3636M41.3636 37.3636H35.303M41.3636 37.3636V43.4242M59.5455 37.3636H53.4848M59.5455 37.3636H65.6061M59.5455 37.3636V43.4242H53.4848V37.3636M65.6061 37.3636H71.6667M65.6061 37.3636V43.4242H71.6667V37.3636M77.7273 37.3636H71.6667M77.7273 37.3636H83.7879M77.7273 37.3636V43.4242M83.7879 31.303V37.3636M83.7879 37.3636H89.8485M83.7879 37.3636V43.4242M89.8485 37.3636H95.9091V43.4242M89.8485 37.3636V43.4242M114.091 37.3636H108.03M114.091 37.3636H120.152V43.4242M114.091 37.3636V43.4242M108.03 37.3636H101.97V43.4242H108.03M108.03 37.3636V43.4242M138.333 37.3636H132.273M138.333 37.3636H144.394M138.333 37.3636V43.4242H144.394M132.273 37.3636H126.212V43.4242M132.273 37.3636V43.4242M150.455 37.3636H144.394M150.455 37.3636H156.515V43.4242M150.455 37.3636V43.4242M144.394 37.3636V43.4242M168.636 37.3636H162.576M168.636 37.3636V43.4242M168.636 37.3636H174.697M162.576 37.3636V43.4242H168.636M205 37.3636H198.939M205 37.3636V43.4242H198.939M198.939 37.3636H192.879M198.939 37.3636V43.4242M11.0606 43.4242H17.1212M17.1212 37.3636V43.4242M17.1212 37.3636H23.1818M17.1212 43.4242H23.1818M23.1818 37.3636V43.4242M23.1818 37.3636H29.2424M23.1818 43.4242H29.2424M29.2424 37.3636V43.4242M29.2424 37.3636H35.303M29.2424 43.4242H35.303M35.303 37.3636V43.4242M35.303 43.4242H41.3636M83.7879 43.4242H77.7273M83.7879 43.4242V49.4848M83.7879 43.4242H89.8485M77.7273 43.4242V49.4848M95.9091 43.4242H89.8485M95.9091 43.4242V49.4848M89.8485 43.4242V49.4848M108.03 43.4242H114.091M108.03 43.4242V49.4848M120.152 43.4242H114.091M120.152 43.4242H126.212M120.152 43.4242V49.4848M114.091 43.4242V49.4848H108.03M132.273 43.4242H126.212M132.273 43.4242V49.4848H126.212M126.212 43.4242V49.4848M144.394 43.4242H150.455M144.394 43.4242V49.4848H150.455M156.515 43.4242H150.455M156.515 43.4242V49.4848M150.455 43.4242V49.4848M168.636 43.4242H174.697M174.697 37.3636V43.4242M174.697 37.3636H180.758M174.697 43.4242H180.758M180.758 37.3636V43.4242M180.758 37.3636H186.818M180.758 43.4242H186.818M186.818 37.3636V43.4242M186.818 37.3636H192.879M186.818 43.4242H192.879M192.879 37.3636V43.4242M192.879 43.4242H198.939M83.7879 49.4848H77.7273M83.7879 49.4848H89.8485M83.7879 49.4848V55.5455M77.7273 49.4848V55.5455M89.8485 49.4848H95.9091M89.8485 49.4848V55.5455M95.9091 49.4848V55.5455M108.03 49.4848H101.97V55.5455M108.03 49.4848V55.5455M126.212 49.4848H120.152M126.212 49.4848V55.5455M120.152 49.4848V55.5455H126.212M150.455 49.4848H156.515M156.515 49.4848H162.576V55.5455M156.515 49.4848V55.5455M41.3636 49.4848H35.303V55.5455M41.3636 49.4848V55.5455M41.3636 49.4848H47.4242M41.3636 55.5455H35.303M41.3636 55.5455H47.4242M41.3636 55.5455V61.6061M35.303 55.5455H29.2424V61.6061M35.303 55.5455V61.6061M47.4242 49.4848V55.5455M47.4242 49.4848H53.4848M47.4242 55.5455H53.4848M53.4848 49.4848V55.5455M53.4848 49.4848H59.5455M53.4848 55.5455H59.5455M59.5455 49.4848V55.5455M59.5455 49.4848H65.6061M59.5455 55.5455H65.6061M59.5455 55.5455V61.6061H65.6061V55.5455M65.6061 49.4848V55.5455M65.6061 49.4848H71.6667V55.5455M65.6061 55.5455H71.6667M71.6667 55.5455H77.7273M71.6667 55.5455V61.6061H77.7273V55.5455M83.7879 55.5455H77.7273M83.7879 55.5455H89.8485M89.8485 55.5455H95.9091M89.8485 55.5455V61.6061M95.9091 55.5455V61.6061M95.9091 55.5455H101.97M108.03 55.5455H101.97M108.03 55.5455V61.6061M108.03 55.5455H114.091V61.6061M101.97 55.5455V61.6061M126.212 55.5455H132.273V61.6061M126.212 55.5455V61.6061H132.273M162.576 55.5455H156.515M162.576 55.5455V61.6061M162.576 55.5455H168.636M156.515 55.5455H150.455M156.515 55.5455V61.6061M174.697 49.4848H168.636V55.5455M174.697 49.4848V55.5455M174.697 49.4848H180.758M174.697 55.5455H168.636M174.697 55.5455H180.758M174.697 55.5455V61.6061M168.636 55.5455V61.6061M180.758 49.4848V55.5455M180.758 49.4848H186.818M180.758 55.5455H186.818M180.758 55.5455V61.6061M186.818 49.4848V55.5455M186.818 49.4848H192.879M186.818 55.5455H192.879M186.818 55.5455V61.6061M192.879 49.4848V55.5455M192.879 49.4848H198.939V55.5455M192.879 55.5455H198.939M192.879 55.5455V61.6061M198.939 55.5455V61.6061M198.939 55.5455H205V61.6061M35.303 61.6061H29.2424M35.303 61.6061H41.3636M35.303 61.6061V67.6667M29.2424 61.6061H23.1818V67.6667M29.2424 61.6061V67.6667M41.3636 61.6061H47.4242M41.3636 61.6061V67.6667M95.9091 61.6061H89.8485M95.9091 61.6061H101.97M95.9091 61.6061V67.6667H101.97M89.8485 61.6061H83.7879V67.6667M89.8485 61.6061V67.6667H83.7879M101.97 61.6061H108.03M101.97 61.6061V67.6667M108.03 61.6061H114.091M108.03 61.6061V67.6667M114.091 61.6061V67.6667M114.091 61.6061H120.152V67.6667M132.273 61.6061H138.333M132.273 61.6061V67.6667M150.455 55.5455H144.394V61.6061M150.455 55.5455V61.6061M150.455 61.6061H144.394M150.455 61.6061H156.515M150.455 61.6061V67.6667M144.394 61.6061H138.333M144.394 61.6061V67.6667M156.515 61.6061H162.576M162.576 61.6061H168.636M168.636 61.6061H174.697M168.636 61.6061V67.6667M174.697 61.6061V67.6667M174.697 61.6061H180.758M186.818 61.6061H180.758M186.818 61.6061H192.879M186.818 61.6061V67.6667M180.758 61.6061V67.6667M198.939 61.6061H192.879M198.939 61.6061H205M198.939 61.6061V67.6667M192.879 61.6061V67.6667M205 61.6061V67.6667M17.1212 67.6667V61.6061H11.0606V67.6667M17.1212 67.6667H11.0606M17.1212 67.6667H23.1818M17.1212 67.6667V73.7273M11.0606 67.6667H5V73.7273H11.0606M11.0606 67.6667V73.7273M29.2424 67.6667H23.1818M29.2424 67.6667H35.303M23.1818 67.6667V73.7273M35.303 67.6667H41.3636M35.303 67.6667V73.7273M47.4242 61.6061V67.6667M47.4242 61.6061H53.4848V67.6667M47.4242 67.6667H41.3636M47.4242 67.6667H53.4848M47.4242 67.6667V73.7273M41.3636 67.6667V73.7273M53.4848 67.6667V73.7273M53.4848 67.6667H59.5455M83.7879 67.6667H77.7273V73.7273M83.7879 67.6667V73.7273M101.97 67.6667H108.03M101.97 67.6667V73.7273M108.03 67.6667H114.091M108.03 67.6667V73.7273M114.091 67.6667H120.152M120.152 67.6667H126.212M120.152 67.6667V73.7273M138.333 61.6061V67.6667M138.333 67.6667H132.273M138.333 67.6667H144.394M138.333 67.6667V73.7273M132.273 67.6667H126.212M132.273 67.6667V73.7273M144.394 67.6667H150.455M144.394 67.6667V73.7273M150.455 67.6667V73.7273M150.455 67.6667H156.515V73.7273M174.697 67.6667H168.636M174.697 67.6667H180.758M174.697 67.6667V73.7273M168.636 67.6667H162.576V73.7273M168.636 67.6667V73.7273M180.758 67.6667H186.818M180.758 67.6667V73.7273M192.879 67.6667H186.818M192.879 67.6667H198.939M192.879 67.6667V73.7273H198.939M186.818 67.6667V73.7273M205 67.6667H198.939M205 67.6667V73.7273M198.939 67.6667V73.7273M11.0606 73.7273H17.1212M11.0606 73.7273V79.7879M23.1818 73.7273H17.1212M23.1818 73.7273V79.7879M17.1212 73.7273V79.7879M41.3636 73.7273H35.303M41.3636 73.7273H47.4242M41.3636 73.7273V79.7879H47.4242M35.303 73.7273H29.2424V79.7879M35.303 73.7273V79.7879H29.2424M53.4848 73.7273H47.4242M53.4848 73.7273H59.5455M53.4848 73.7273V79.7879M47.4242 73.7273V79.7879M59.5455 67.6667V73.7273M59.5455 67.6667H65.6061V73.7273M59.5455 73.7273H65.6061M59.5455 73.7273V79.7879M65.6061 73.7273V79.7879M83.7879 73.7273H77.7273M83.7879 73.7273V79.7879M83.7879 73.7273H89.8485M77.7273 73.7273H71.6667V79.7879M77.7273 73.7273V79.7879M108.03 73.7273H101.97M108.03 73.7273V79.7879M101.97 73.7273V79.7879M126.212 67.6667V73.7273M126.212 73.7273H120.152M126.212 73.7273H132.273M120.152 73.7273H114.091V79.7879M120.152 73.7273V79.7879M132.273 73.7273H138.333M132.273 73.7273V79.7879M144.394 73.7273H138.333M144.394 73.7273H150.455M144.394 73.7273V79.7879M138.333 73.7273V79.7879M150.455 73.7273H156.515M150.455 73.7273V79.7879M156.515 73.7273V79.7879M168.636 73.7273H162.576M168.636 73.7273H174.697M168.636 73.7273V79.7879M162.576 73.7273V79.7879M174.697 73.7273H180.758M174.697 73.7273V79.7879H180.758M186.818 73.7273H180.758M186.818 73.7273V79.7879H180.758M180.758 73.7273V79.7879M198.939 73.7273H205M198.939 73.7273V79.7879M205 73.7273V79.7879M17.1212 79.7879H11.0606M17.1212 79.7879H23.1818M17.1212 79.7879V85.8485M11.0606 79.7879H5V85.8485H11.0606M11.0606 79.7879V85.8485M23.1818 79.7879V85.8485M23.1818 79.7879H29.2424M29.2424 79.7879V85.8485H23.1818M47.4242 79.7879H53.4848M47.4242 79.7879V85.8485M59.5455 79.7879H53.4848M59.5455 79.7879H65.6061M59.5455 79.7879V85.8485H65.6061M53.4848 79.7879V85.8485M65.6061 79.7879V85.8485M65.6061 79.7879H71.6667M77.7273 79.7879H71.6667M77.7273 79.7879H83.7879M71.6667 79.7879V85.8485M83.7879 79.7879H89.8485M89.8485 73.7273V79.7879M89.8485 73.7273H95.9091V79.7879M89.8485 79.7879H95.9091M95.9091 79.7879H101.97M95.9091 79.7879V85.8485M108.03 79.7879H101.97M108.03 79.7879H114.091M108.03 79.7879V85.8485M101.97 79.7879V85.8485M120.152 79.7879H114.091M120.152 79.7879V85.8485M120.152 79.7879H126.212M114.091 79.7879V85.8485M138.333 79.7879H132.273M138.333 79.7879H144.394M138.333 79.7879V85.8485M132.273 79.7879H126.212M132.273 79.7879V85.8485M144.394 79.7879V85.8485M144.394 79.7879H150.455M156.515 79.7879H150.455M156.515 79.7879V85.8485M156.515 79.7879H162.576M150.455 79.7879V85.8485M168.636 79.7879H162.576M168.636 79.7879V85.8485M162.576 79.7879V85.8485M205 79.7879H198.939M205 79.7879V85.8485M198.939 79.7879V85.8485M11.0606 85.8485H17.1212M11.0606 85.8485V91.9091M17.1212 85.8485H23.1818M17.1212 85.8485V91.9091H11.0606M53.4848 85.8485H47.4242M53.4848 85.8485V91.9091M47.4242 85.8485H41.3636M47.4242 85.8485V91.9091M65.6061 85.8485H71.6667M71.6667 85.8485H77.7273V91.9091M71.6667 85.8485V91.9091M101.97 85.8485H95.9091M101.97 85.8485V91.9091M95.9091 85.8485H89.8485M95.9091 85.8485V91.9091M114.091 85.8485H108.03M114.091 85.8485H120.152M114.091 85.8485V91.9091M108.03 85.8485V91.9091M120.152 85.8485H126.212M120.152 85.8485V91.9091M126.212 79.7879V85.8485M126.212 85.8485H132.273M126.212 85.8485V91.9091M132.273 85.8485H138.333M132.273 85.8485V91.9091H126.212M138.333 85.8485H144.394M144.394 85.8485H150.455M144.394 85.8485V91.9091M150.455 85.8485H156.515M150.455 85.8485V91.9091H144.394M156.515 85.8485H162.576M156.515 85.8485V91.9091M162.576 85.8485H168.636M162.576 85.8485V91.9091M168.636 85.8485V91.9091H162.576M205 85.8485H198.939M205 85.8485V91.9091H198.939M198.939 85.8485V91.9091M11.0606 91.9091H5V97.9697M11.0606 91.9091V97.9697M41.3636 85.8485H35.303V91.9091H41.3636M41.3636 85.8485V91.9091M41.3636 91.9091H47.4242M47.4242 91.9091H53.4848M47.4242 91.9091V97.9697M53.4848 91.9091V97.9697H47.4242M77.7273 91.9091H71.6667M77.7273 91.9091H83.7879M77.7273 91.9091V97.9697M71.6667 91.9091H65.6061M71.6667 91.9091V97.9697M89.8485 85.8485H83.7879V91.9091M89.8485 85.8485V91.9091M89.8485 91.9091H83.7879M89.8485 91.9091H95.9091M83.7879 91.9091V97.9697H77.7273M95.9091 91.9091H101.97M95.9091 91.9091V97.9697M101.97 91.9091V97.9697M114.091 91.9091H108.03M114.091 91.9091H120.152M114.091 91.9091V97.9697M108.03 91.9091V97.9697M120.152 91.9091H126.212M120.152 91.9091V97.9697M126.212 91.9091V97.9697M144.394 91.9091H138.333V97.9697M144.394 91.9091V97.9697M162.576 91.9091H156.515M162.576 91.9091V97.9697M156.515 91.9091V97.9697M192.879 91.9091V85.8485H186.818V91.9091H192.879ZM192.879 91.9091H198.939M192.879 91.9091V97.9697M198.939 91.9091V97.9697M11.0606 97.9697H5M11.0606 97.9697V104.03M5 97.9697V104.03H11.0606M29.2424 97.9697V91.9091H23.1818V97.9697H29.2424ZM29.2424 97.9697H35.303V104.03M29.2424 97.9697V104.03M47.4242 97.9697H41.3636V104.03H47.4242M47.4242 97.9697V104.03M65.6061 91.9091H59.5455V97.9697H65.6061M65.6061 91.9091V97.9697M65.6061 97.9697H71.6667M65.6061 97.9697V104.03M71.6667 97.9697V104.03M71.6667 97.9697H77.7273M77.7273 97.9697V104.03M101.97 97.9697H95.9091M101.97 97.9697V104.03M95.9091 97.9697H89.8485V104.03M95.9091 97.9697V104.03M114.091 97.9697H108.03M114.091 97.9697V104.03M114.091 97.9697H120.152M108.03 97.9697V104.03M126.212 97.9697H120.152M126.212 97.9697V104.03M126.212 97.9697H132.273V104.03M120.152 97.9697V104.03M144.394 97.9697H138.333M144.394 97.9697V104.03M138.333 97.9697V104.03M162.576 97.9697H156.515M162.576 97.9697V104.03M162.576 97.9697H168.636M156.515 97.9697V104.03H162.576M198.939 97.9697H192.879M198.939 97.9697V104.03H192.879M192.879 97.9697H186.818V104.03M192.879 97.9697V104.03M11.0606 104.03H17.1212M11.0606 104.03V110.091H17.1212M35.303 104.03H29.2424M35.303 104.03V110.091M29.2424 104.03V110.091H35.303M47.4242 104.03H53.4848V110.091M47.4242 104.03V110.091M71.6667 104.03H65.6061M71.6667 104.03H77.7273M71.6667 104.03V110.091M65.6061 104.03V110.091M77.7273 104.03V110.091M95.9091 104.03H89.8485M95.9091 104.03H101.97M95.9091 104.03V110.091M89.8485 104.03V110.091M101.97 104.03V110.091M114.091 104.03H108.03M114.091 104.03H120.152M114.091 104.03V110.091M108.03 104.03V110.091H114.091M120.152 104.03H126.212M120.152 104.03V110.091M126.212 104.03H132.273M126.212 104.03V110.091M132.273 104.03V110.091M132.273 104.03H138.333M144.394 104.03H138.333M144.394 104.03H150.455V110.091M144.394 104.03V110.091M138.333 104.03V110.091M162.576 104.03H168.636M162.576 104.03V110.091H168.636M168.636 97.9697V104.03M168.636 97.9697H174.697V104.03M168.636 104.03H174.697M168.636 104.03V110.091M174.697 104.03V110.091M192.879 104.03H186.818M192.879 104.03V110.091M186.818 104.03V110.091M17.1212 104.03V110.091M17.1212 104.03H23.1818V110.091H17.1212M35.303 110.091H41.3636M35.303 110.091V116.152M53.4848 110.091H47.4242M53.4848 110.091V116.152M53.4848 110.091H59.5455M47.4242 110.091H41.3636M47.4242 110.091V116.152M71.6667 110.091H65.6061M71.6667 110.091H77.7273M71.6667 110.091V116.152M65.6061 110.091H59.5455M65.6061 110.091V116.152M77.7273 110.091V116.152M77.7273 110.091H83.7879M95.9091 110.091H89.8485M95.9091 110.091H101.97M95.9091 110.091V116.152M89.8485 110.091H83.7879M89.8485 110.091V116.152M101.97 110.091V116.152M114.091 110.091H120.152M114.091 110.091V116.152M120.152 110.091H126.212M120.152 110.091V116.152M126.212 110.091H132.273M126.212 110.091V116.152M132.273 110.091H138.333M132.273 110.091V116.152M138.333 110.091V116.152M138.333 110.091H144.394M150.455 110.091H144.394M150.455 110.091V116.152M144.394 110.091V116.152M168.636 110.091H174.697M174.697 110.091H180.758M174.697 110.091V116.152M192.879 110.091H186.818M192.879 110.091V116.152H186.818M186.818 110.091H180.758M186.818 110.091V116.152M41.3636 110.091V116.152M41.3636 116.152H35.303M41.3636 116.152H47.4242M35.303 116.152H29.2424M35.303 116.152V122.212M47.4242 116.152H53.4848M53.4848 116.152H59.5455M59.5455 110.091V116.152M59.5455 116.152H65.6061M59.5455 116.152V122.212M65.6061 116.152H71.6667M65.6061 116.152V122.212M71.6667 116.152H77.7273M77.7273 116.152H83.7879M83.7879 110.091V116.152M83.7879 116.152H89.8485M83.7879 116.152V122.212M89.8485 116.152V122.212M89.8485 116.152H95.9091M101.97 116.152H95.9091M101.97 116.152V122.212M101.97 116.152H108.03M95.9091 116.152V122.212M120.152 116.152H114.091M120.152 116.152H126.212M120.152 116.152V122.212M114.091 116.152H108.03M114.091 116.152V122.212M126.212 116.152H132.273M126.212 116.152V122.212M132.273 116.152H138.333M138.333 116.152H144.394M138.333 116.152V122.212H144.394M144.394 116.152H150.455M144.394 116.152V122.212M150.455 116.152V122.212M180.758 110.091V116.152M180.758 116.152H174.697M180.758 116.152H186.818M180.758 116.152V122.212M174.697 116.152V122.212M186.818 116.152V122.212H180.758M11.0606 116.152H5V122.212H11.0606M11.0606 116.152V122.212M11.0606 116.152H17.1212V122.212H11.0606M29.2424 116.152H23.1818V122.212M29.2424 116.152V122.212M29.2424 122.212H23.1818M29.2424 122.212H35.303M29.2424 122.212V128.273M23.1818 122.212V128.273H29.2424M35.303 122.212V128.273M35.303 122.212H41.3636M65.6061 122.212H59.5455M65.6061 122.212V128.273M65.6061 122.212H71.6667M59.5455 122.212V128.273M89.8485 122.212H83.7879M89.8485 122.212H95.9091M89.8485 122.212V128.273M83.7879 122.212V128.273H89.8485M95.9091 122.212H101.97M95.9091 122.212V128.273M101.97 122.212H108.03M101.97 122.212V128.273M108.03 116.152V122.212M108.03 122.212H114.091M108.03 122.212V128.273M114.091 122.212H120.152M114.091 122.212V128.273M126.212 122.212H120.152M126.212 122.212V128.273M126.212 122.212H132.273V128.273M120.152 122.212V128.273M144.394 122.212H150.455M144.394 122.212V128.273M150.455 122.212V128.273H144.394M168.636 122.212V116.152H162.576V122.212H168.636ZM168.636 122.212H174.697M168.636 122.212V128.273H174.697V122.212M180.758 122.212H174.697M29.2424 128.273H35.303M29.2424 128.273V134.333H35.303M35.303 128.273H41.3636M35.303 128.273V134.333M41.3636 122.212V128.273M41.3636 122.212H47.4242V128.273M41.3636 128.273H47.4242M41.3636 128.273V134.333M47.4242 128.273H53.4848V134.333M47.4242 128.273V134.333M65.6061 128.273H59.5455M65.6061 128.273H71.6667M65.6061 128.273V134.333M59.5455 128.273V134.333M71.6667 122.212V128.273M71.6667 122.212H77.7273V128.273M71.6667 128.273H77.7273M71.6667 128.273V134.333M77.7273 128.273V134.333M89.8485 128.273H95.9091M95.9091 128.273H101.97M95.9091 128.273V134.333M101.97 128.273H108.03M101.97 128.273V134.333H95.9091M108.03 128.273H114.091M108.03 128.273V134.333H114.091M120.152 128.273H114.091M120.152 128.273H126.212M114.091 128.273V134.333M126.212 128.273H132.273M126.212 128.273V134.333M132.273 128.273V134.333H126.212M144.394 128.273H138.333V134.333H144.394M144.394 128.273V134.333M35.303 134.333H41.3636M41.3636 134.333H47.4242M41.3636 134.333V140.394M53.4848 134.333H47.4242M53.4848 134.333V140.394H47.4242M47.4242 134.333V140.394M65.6061 134.333H59.5455M65.6061 134.333V140.394M59.5455 134.333V140.394M77.7273 134.333H71.6667M77.7273 134.333V140.394M77.7273 134.333H83.7879M71.6667 134.333V140.394M95.9091 134.333H89.8485M95.9091 134.333V140.394M114.091 134.333H120.152M114.091 134.333V140.394M126.212 134.333H120.152M126.212 134.333V140.394M144.394 134.333H150.455V140.394H144.394M144.394 134.333V140.394M205 134.333V128.273H198.939V134.333M205 134.333H198.939M205 134.333V140.394H198.939V134.333M11.0606 134.333H5V140.394H11.0606M11.0606 134.333V140.394M11.0606 134.333H17.1212M11.0606 140.394H17.1212M17.1212 134.333V140.394M17.1212 134.333H23.1818V140.394M17.1212 140.394H23.1818M17.1212 140.394V146.455M23.1818 140.394V146.455M47.4242 140.394H41.3636M41.3636 140.394H35.303V146.455H41.3636M41.3636 140.394V146.455M65.6061 140.394H59.5455M65.6061 140.394V146.455M65.6061 140.394H71.6667M59.5455 140.394V146.455M77.7273 140.394H71.6667M77.7273 140.394H83.7879M77.7273 140.394V146.455M71.6667 140.394V146.455M83.7879 134.333V140.394M83.7879 134.333H89.8485M83.7879 140.394H89.8485M83.7879 140.394V146.455M89.8485 134.333V140.394M89.8485 140.394H95.9091M95.9091 140.394H101.97V146.455M95.9091 140.394V146.455M120.152 134.333V140.394M120.152 140.394H114.091M120.152 140.394H126.212M120.152 140.394V146.455M114.091 140.394H108.03V146.455M114.091 140.394V146.455M126.212 140.394V146.455M126.212 140.394H132.273V146.455M144.394 140.394H138.333V146.455M144.394 140.394V146.455M162.576 134.333H156.515V140.394H162.576M162.576 134.333V140.394M162.576 134.333H168.636V140.394M162.576 140.394H168.636M168.636 140.394H174.697V146.455M168.636 140.394V146.455M23.1818 146.455H17.1212M23.1818 146.455V152.515M23.1818 146.455H29.2424V152.515H23.1818M17.1212 146.455H11.0606M17.1212 146.455V152.515M41.3636 146.455H47.4242M41.3636 146.455V152.515H47.4242M65.6061 146.455H59.5455M65.6061 146.455H71.6667M65.6061 146.455V152.515M59.5455 146.455V152.515M71.6667 146.455V152.515M71.6667 146.455H77.7273M83.7879 146.455H77.7273M83.7879 146.455H89.8485V152.515H83.7879M83.7879 146.455V152.515M77.7273 146.455V152.515M101.97 146.455H95.9091M101.97 146.455V152.515M101.97 146.455H108.03M95.9091 146.455V152.515M114.091 146.455H108.03M114.091 146.455V152.515H108.03M108.03 146.455V152.515M126.212 146.455H120.152M126.212 146.455H132.273M126.212 146.455V152.515M120.152 146.455V152.515H126.212M132.273 146.455V152.515M132.273 146.455H138.333M144.394 146.455H138.333M144.394 146.455V152.515M144.394 146.455H150.455M138.333 146.455V152.515M174.697 146.455H168.636M174.697 146.455V152.515M174.697 146.455H180.758M168.636 146.455H162.576M168.636 146.455V152.515M180.758 146.455H186.818V140.394H180.758V146.455ZM180.758 146.455V152.515M11.0606 146.455H5V152.515H11.0606M11.0606 146.455V152.515M11.0606 152.515H17.1212M17.1212 152.515H23.1818M47.4242 146.455V152.515M47.4242 146.455H53.4848V152.515M47.4242 152.515H53.4848M53.4848 152.515H59.5455M53.4848 152.515V158.576M65.6061 152.515H59.5455M65.6061 152.515H71.6667M65.6061 152.515V158.576M59.5455 152.515V158.576M71.6667 152.515H77.7273M71.6667 152.515V158.576M77.7273 152.515H83.7879M77.7273 152.515V158.576M83.7879 152.515V158.576M101.97 152.515H95.9091M101.97 152.515H108.03M101.97 152.515V158.576M95.9091 152.515V158.576M126.212 152.515H132.273M126.212 152.515V158.576M132.273 152.515H138.333M132.273 152.515V158.576M138.333 152.515H144.394M138.333 152.515V158.576H132.273M144.394 152.515H150.455M150.455 146.455V152.515M150.455 146.455H156.515M150.455 152.515H156.515M150.455 152.515V158.576M156.515 146.455V152.515M156.515 146.455H162.576M156.515 152.515H162.576M156.515 152.515V158.576M162.576 146.455V152.515M162.576 152.515H168.636M168.636 152.515H174.697M174.697 152.515H180.758M174.697 152.515V158.576M180.758 152.515V158.576M180.758 152.515H186.818V158.576M198.939 146.455H192.879V152.515M198.939 146.455V152.515M198.939 146.455H205V152.515M198.939 152.515H192.879M198.939 152.515H205M198.939 152.515V158.576M192.879 152.515V158.576M205 152.515V158.576M59.5455 158.576H53.4848M59.5455 158.576V164.636M53.4848 158.576V164.636M71.6667 158.576H65.6061M71.6667 158.576V164.636M65.6061 158.576V164.636M83.7879 158.576H77.7273M83.7879 158.576V164.636M77.7273 158.576V164.636M101.97 158.576H95.9091M101.97 158.576V164.636M101.97 158.576H108.03M95.9091 158.576V164.636M132.273 158.576H126.212M132.273 158.576V164.636M126.212 158.576V164.636M156.515 158.576H150.455M156.515 158.576V164.636M150.455 158.576V164.636M180.758 158.576H174.697M180.758 158.576H186.818M180.758 158.576V164.636M174.697 158.576V164.636M186.818 158.576V164.636M186.818 158.576H192.879M198.939 158.576H192.879M198.939 158.576H205M198.939 158.576V164.636M192.879 158.576V164.636M205 158.576V164.636M11.0606 158.576H5V164.636M11.0606 158.576V164.636M11.0606 158.576H17.1212M11.0606 164.636H5M11.0606 164.636H17.1212M11.0606 164.636V170.697M5 164.636V170.697M17.1212 158.576V164.636M17.1212 158.576H23.1818M17.1212 164.636H23.1818M23.1818 158.576V164.636M23.1818 158.576H29.2424M23.1818 164.636H29.2424M29.2424 158.576V164.636M29.2424 158.576H35.303M29.2424 164.636H35.303M35.303 158.576V164.636M35.303 158.576H41.3636M35.303 164.636H41.3636M41.3636 158.576V164.636M41.3636 158.576H47.4242V164.636M41.3636 164.636H47.4242M41.3636 164.636V170.697M47.4242 164.636V170.697M59.5455 164.636H53.4848M59.5455 164.636V170.697M53.4848 164.636V170.697H59.5455M71.6667 164.636H65.6061M71.6667 164.636V170.697M71.6667 164.636H77.7273M65.6061 164.636V170.697M83.7879 164.636H77.7273M83.7879 164.636V170.697M83.7879 164.636H89.8485V170.697H83.7879M77.7273 164.636V170.697M101.97 164.636H95.9091M101.97 164.636H108.03M101.97 164.636V170.697H95.9091V164.636M108.03 158.576V164.636M108.03 158.576H114.091M108.03 164.636H114.091M114.091 158.576V164.636M114.091 158.576H120.152V164.636M114.091 164.636H120.152M114.091 164.636V170.697M120.152 164.636V170.697M120.152 164.636H126.212M132.273 164.636H126.212M132.273 164.636V170.697M132.273 164.636H138.333V170.697M126.212 164.636V170.697M156.515 164.636H150.455M156.515 164.636V170.697M150.455 164.636H144.394V170.697M150.455 164.636V170.697M180.758 164.636H174.697M180.758 164.636H186.818M180.758 164.636V170.697M174.697 164.636V170.697M186.818 164.636H192.879M186.818 164.636V170.697M192.879 164.636H198.939M192.879 164.636V170.697H198.939M205 164.636H198.939M205 164.636V170.697H198.939M198.939 164.636V170.697M11.0606 170.697H5M11.0606 170.697V176.758M5 170.697V176.758M47.4242 170.697H41.3636M47.4242 170.697V176.758M41.3636 170.697V176.758M59.5455 170.697H65.6061M59.5455 170.697V176.758M71.6667 170.697H65.6061M71.6667 170.697H77.7273M71.6667 170.697V176.758M65.6061 170.697V176.758M77.7273 170.697H83.7879M77.7273 170.697V176.758M83.7879 170.697V176.758H77.7273M120.152 170.697H114.091M120.152 170.697H126.212M120.152 170.697V176.758M114.091 170.697H108.03V176.758M114.091 170.697V176.758M126.212 170.697H132.273M126.212 170.697V176.758M132.273 170.697H138.333M132.273 170.697V176.758M138.333 170.697V176.758M150.455 170.697H144.394M150.455 170.697H156.515M150.455 170.697V176.758M144.394 170.697V176.758H150.455M156.515 170.697V176.758M156.515 170.697H162.576M180.758 170.697H174.697M180.758 170.697H186.818M180.758 170.697V176.758M174.697 170.697H168.636M174.697 170.697V176.758M186.818 170.697V176.758M11.0606 176.758H5M11.0606 176.758V182.818M5 176.758V182.818M23.1818 170.697H17.1212V176.758M23.1818 170.697V176.758M23.1818 170.697H29.2424M23.1818 176.758H17.1212M23.1818 176.758H29.2424M23.1818 176.758V182.818M17.1212 176.758V182.818M29.2424 170.697V176.758M29.2424 170.697H35.303V176.758M29.2424 176.758H35.303M29.2424 176.758V182.818M35.303 176.758V182.818M47.4242 176.758H41.3636M47.4242 176.758V182.818M41.3636 176.758V182.818M65.6061 176.758H59.5455M65.6061 176.758V182.818M59.5455 176.758V182.818M77.7273 176.758H71.6667M77.7273 176.758V182.818H71.6667M71.6667 176.758V182.818M114.091 176.758H108.03M114.091 176.758V182.818M114.091 176.758H120.152M108.03 176.758H101.97M108.03 176.758V182.818M126.212 176.758H120.152M126.212 176.758V182.818M126.212 176.758H132.273M120.152 176.758V182.818M138.333 176.758H132.273M138.333 176.758V182.818M132.273 176.758V182.818M150.455 176.758H156.515M150.455 176.758V182.818H156.515M156.515 176.758H162.576M156.515 176.758V182.818M162.576 170.697V176.758M162.576 170.697H168.636M162.576 176.758H168.636M162.576 176.758V182.818H156.515M168.636 170.697V176.758M168.636 176.758H174.697M168.636 176.758V182.818H174.697M174.697 176.758H180.758M174.697 176.758V182.818M180.758 176.758H186.818M180.758 176.758V182.818M186.818 176.758V182.818M186.818 176.758H192.879M11.0606 182.818H5M11.0606 182.818V188.879M5 182.818V188.879M23.1818 182.818H17.1212M23.1818 182.818H29.2424M23.1818 182.818V188.879M17.1212 182.818V188.879H23.1818M29.2424 182.818H35.303M29.2424 182.818V188.879M35.303 182.818V188.879H29.2424M47.4242 182.818H41.3636M47.4242 182.818V188.879M41.3636 182.818V188.879M65.6061 182.818H59.5455M65.6061 182.818V188.879M65.6061 182.818H71.6667M59.5455 182.818H53.4848V188.879H59.5455M59.5455 182.818V188.879M71.6667 182.818V188.879M101.97 176.758H95.9091V182.818H101.97M101.97 176.758V182.818M101.97 182.818H108.03M101.97 182.818V188.879M108.03 182.818H114.091M108.03 182.818V188.879M114.091 182.818H120.152M120.152 182.818H126.212M120.152 182.818V188.879M126.212 182.818H132.273M126.212 182.818V188.879M132.273 182.818H138.333M132.273 182.818V188.879M138.333 182.818V188.879H132.273M174.697 182.818H180.758M174.697 182.818V188.879H180.758M180.758 182.818H186.818M180.758 182.818V188.879M186.818 182.818H192.879M186.818 182.818V188.879M192.879 176.758V182.818M192.879 176.758H198.939V182.818M192.879 182.818H198.939M192.879 182.818V188.879M198.939 182.818V188.879M198.939 182.818H205V188.879H198.939M11.0606 188.879H5M11.0606 188.879V194.939M5 188.879V194.939M23.1818 188.879H29.2424M47.4242 188.879H41.3636M47.4242 188.879V194.939M41.3636 188.879V194.939M59.5455 188.879H65.6061M59.5455 188.879V194.939H65.6061V188.879M65.6061 188.879H71.6667M71.6667 188.879H77.7273V194.939M71.6667 188.879V194.939H77.7273M89.8485 188.879V182.818H83.7879V188.879M89.8485 188.879H83.7879M89.8485 188.879V194.939M89.8485 188.879H95.9091V194.939M83.7879 188.879V194.939M108.03 188.879H101.97M108.03 188.879V194.939M101.97 188.879V194.939M126.212 188.879H120.152M126.212 188.879H132.273M126.212 188.879V194.939M120.152 188.879H114.091V194.939M120.152 188.879V194.939M132.273 188.879V194.939M180.758 188.879H186.818M180.758 188.879V194.939M186.818 188.879V194.939M186.818 188.879H192.879M198.939 188.879H192.879M192.879 188.879V194.939M11.0606 194.939H5M11.0606 194.939V201M11.0606 194.939H17.1212M5 194.939V201H11.0606M47.4242 194.939H41.3636M47.4242 194.939V201H41.3636M41.3636 194.939H35.303M41.3636 194.939V201M77.7273 194.939H83.7879M77.7273 194.939V201H83.7879M89.8485 194.939H83.7879M89.8485 194.939H95.9091M89.8485 194.939V201M83.7879 194.939V201M95.9091 194.939V201M95.9091 194.939H101.97M108.03 194.939H101.97M108.03 194.939V201H101.97M101.97 194.939V201M120.152 194.939H114.091M120.152 194.939H126.212M120.152 194.939V201M114.091 194.939V201H120.152M126.212 194.939H132.273M126.212 194.939V201H120.152M132.273 194.939H138.333M132.273 194.939V201H138.333M156.515 188.879H150.455V194.939M156.515 188.879V194.939M156.515 188.879H162.576V194.939H156.515M156.515 194.939H150.455M156.515 194.939V201H150.455V194.939M186.818 194.939H180.758M186.818 194.939H192.879M186.818 194.939V201M180.758 194.939H174.697V201H180.758M180.758 194.939V201M192.879 194.939V201H186.818M11.0606 201H17.1212M17.1212 194.939V201M17.1212 194.939H23.1818M17.1212 201H23.1818M23.1818 194.939V201M23.1818 194.939H29.2424M23.1818 201H29.2424M29.2424 194.939V201M29.2424 194.939H35.303M29.2424 201H35.303M35.303 194.939V201M35.303 201H41.3636M83.7879 201H89.8485M89.8485 201H95.9091M95.9091 201H101.97M138.333 194.939V201M138.333 194.939H144.394V201H138.333M180.758 201H186.818M150.455 1H156.515V7.06061H150.455V1ZM17.1212 49.4848H23.1818V55.5455H17.1212V49.4848ZM174.697 85.8485H180.758V91.9091H174.697V85.8485ZM198.939 116.152H205V122.212H198.939V116.152ZM180.758 128.273H186.818V134.333H180.758V128.273ZM162.576 158.576H168.636V164.636H162.576V158.576ZM198.939 194.939H205V201H198.939V194.939Z" stroke="black" stroke-width="0.5"/>
</g>
<defs>
<filter id="filter0_bd_3_3" x="0.75" y="-3.25" width="208.5" height="212.5" filterUnits="userSpaceOnUse" color-interpolation-filters="sRGB">
<feFlood flood-opacity="0" result="BackgroundImageFix"/>
<feGaussianBlur in="BackgroundImageFix" stdDeviation="2"/>
<feComposite in2="SourceAlpha" operator="in" result="effect1_backgroundBlur_3_3"/>
<feColorMatrix in="SourceAlpha" type="matrix" values="0 0 0 0 0 0 0 0 0 0 0 0 0 0 0 0 0 0 127 0" result="hardAlpha"/>
<feOffset dy="4"/>
<feGaussianBlur stdDeviation="2"/>
<feComposite in2="hardAlpha" operator="out"/>
<feColorMatrix type="matrix" values="0 0 0 0 0 0 0 0 0 0 0 0 0 0 0 0 0 0 0.25 0"/>
<feBlend mode="normal" in2="effect1_backgroundBlur_3_3" result="effect2_dropShadow_3_3"/>
<feBlend mode="normal" in="SourceGraphic" in2="effect2_dropShadow_3_3" result="shape"/>
</filter>
</defs>
</svg>
